<?xml version="1.0" encoding="UTF-8" standalone="no"?>
<!DOCTYPE svg PUBLIC "-//W3C//DTD SVG 1.1//EN" "http://www.w3.org/Graphics/SVG/1.1/DTD/svg11.dtd">
<svg xmlns="http://www.w3.org/2000/svg" version="1.1" viewBox="0 0 423 508" width="423.0pt" height="508.0pt">
<path d="M 0.00 0.00 L 9.31 0.00 C 4.46 1.86 2.14 4.47 0.00 9.11 L 0.00 0.00 Z" fill="#ffffff" />
<path d="M 9.31 0.00 L 412.89 0.00 L 413.71 0.38 L 414.41 0.74 C 417.94 2.60 420.94 5.11 421.79 9.20 C 422.35 13.07 422.02 17.10 422.07 21.00 C 422.08 118.00 422.06 215.00 422.08 312.00 C 422.04 317.30 422.32 322.52 421.75 327.81 C 420.41 334.91 422.34 342.37 420.51 349.29 C 419.97 343.18 420.34 337.12 420.19 331.00 C 419.87 319.34 420.15 307.67 420.09 296.00 C 420.10 203.67 420.07 111.33 420.11 19.00 C 419.92 14.05 421.18 8.59 417.20 4.80 C 413.47 0.99 407.80 2.13 403.00 1.98 C 276.01 2.01 148.99 1.98 22.00 1.99 C 18.34 2.02 14.66 1.82 11.01 2.07 C 7.03 2.22 3.38 5.55 2.35 9.30 C 1.69 12.77 2.03 16.48 1.98 20.00 C 2.01 117.67 1.97 215.34 2.00 313.00 C 2.02 318.06 2.00 323.12 1.90 328.19 C 1.28 327.61 0.64 327.04 0.00 326.48 L 0.00 9.11 C 2.14 4.47 4.46 1.86 9.31 0.00 Z" fill="#caca99" />
<path d="M 412.89 0.00 L 423.00 0.00 L 423.00 508.00 L 413.42 508.00 C 418.32 505.53 422.19 501.94 422.07 496.04 C 421.99 439.98 421.56 383.87 421.75 327.81 C 422.32 322.52 422.04 317.30 422.08 312.00 C 422.06 215.00 422.08 118.00 422.07 21.00 C 422.02 17.10 422.35 13.07 421.79 9.20 C 420.94 5.11 417.94 2.60 414.41 0.74 L 413.71 0.38 L 412.89 0.00 Z" fill="#ffffff" />
<path d="M 11.01 2.07 C 14.66 1.82 18.34 2.02 22.00 1.99 C 148.99 1.98 276.01 2.01 403.00 1.98 C 407.80 2.13 413.47 0.99 417.20 4.80 C 421.18 8.59 419.92 14.05 420.11 19.00 C 420.07 111.33 420.10 203.67 420.09 296.00 C 420.15 307.67 419.87 319.34 420.19 331.00 C 420.34 337.12 419.97 343.18 420.51 349.29 C 420.34 396.50 420.20 443.79 420.15 491.00 C 420.03 494.37 420.68 498.73 418.55 501.56 C 416.40 504.79 412.85 506.16 409.05 506.02 C 280.04 505.98 151.01 506.02 22.00 506.00 C 18.06 505.94 14.05 506.25 10.14 505.81 C 7.69 505.53 5.50 503.54 3.63 502.06 C 2.74 499.77 1.93 497.55 2.00 495.04 C 2.00 476.05 2.00 457.08 1.94 438.08 C 2.06 420.12 2.01 402.16 1.91 384.20 C 2.11 365.53 1.96 346.86 1.90 328.19 C 2.00 323.12 2.02 318.06 2.00 313.00 C 1.97 215.34 2.01 117.67 1.98 20.00 C 2.03 16.48 1.69 12.77 2.35 9.30 C 3.38 5.55 7.03 2.22 11.01 2.07 Z" fill="#f9f9f9" />
<path d="M 409.03 10.69 C 411.82 13.10 413.35 16.49 413.58 20.15 C 413.93 26.04 413.92 31.92 413.70 37.82 C 414.03 46.06 413.85 54.34 413.38 62.57 C 413.37 65.60 414.80 68.14 414.14 71.24 C 413.20 76.54 414.28 81.70 413.80 87.04 C 413.32 93.07 413.49 99.07 413.61 105.12 C 414.46 117.63 413.10 130.23 413.70 142.77 C 413.98 147.53 413.44 152.25 413.93 157.01 C 414.50 161.99 413.79 166.82 413.57 171.79 C 413.38 179.13 413.56 186.45 413.65 193.79 C 414.22 206.02 413.12 218.05 413.93 230.21 C 413.36 235.49 413.80 240.70 413.93 245.98 C 413.89 252.58 413.55 259.23 413.76 265.82 C 414.61 270.60 413.19 275.14 414.02 279.95 C 413.70 289.31 414.01 298.71 414.06 308.05 C 413.28 315.74 414.25 323.35 413.91 331.05 C 413.55 336.88 414.08 342.68 413.90 348.51 C 414.55 356.37 413.63 364.16 414.04 372.03 C 414.53 379.72 413.25 387.29 413.95 394.98 C 413.45 410.16 414.32 425.32 413.70 440.50 C 413.99 451.37 414.18 462.29 413.64 473.15 C 413.84 479.82 414.52 486.11 412.99 492.88 C 411.85 497.28 407.47 500.47 402.97 500.51 C 393.93 500.70 384.87 500.21 375.83 500.52 C 366.32 500.05 356.77 500.43 347.25 500.46 C 341.07 499.94 334.94 500.77 328.77 500.28 C 324.55 500.11 320.33 500.47 316.11 500.26 C 307.74 499.97 299.37 500.82 291.05 500.18 C 286.33 499.79 281.68 500.65 276.98 500.19 C 269.70 499.46 262.57 500.69 255.29 500.35 C 250.79 500.11 246.31 500.24 241.82 500.42 C 220.93 499.96 199.90 500.01 179.00 499.99 C 172.78 499.68 166.62 500.18 160.42 500.38 C 137.09 499.04 113.26 500.65 90.01 500.01 C 80.34 499.95 70.66 500.22 61.00 499.89 C 52.68 499.70 44.30 500.75 35.98 500.26 C 30.22 500.40 23.69 501.30 18.03 499.99 C 14.71 499.21 12.72 496.48 10.72 493.96 C 13.78 492.62 17.71 493.18 21.00 492.96 C 148.36 493.03 275.69 492.99 403.04 493.01 C 404.57 492.98 406.10 492.88 407.63 492.77 C 407.52 336.91 407.61 180.88 407.57 25.00 C 407.59 21.02 407.43 16.93 407.96 12.99 C 408.02 11.95 408.37 11.18 409.03 10.69 Z" fill="#dee0e1" />
<path d="M 27.04 23.04 C 63.95 22.65 101.10 23.01 138.00 22.92 C 217.97 22.85 298.03 22.95 378.00 22.79 C 381.57 22.76 385.11 22.70 388.66 23.17 C 388.59 173.94 388.61 325.02 388.63 475.81 C 378.79 476.33 368.86 475.85 359.00 476.08 C 339.66 475.83 320.34 475.99 301.00 475.98 C 209.70 475.92 118.39 475.90 27.09 475.92 C 26.75 454.97 27.08 433.96 26.87 413.00 C 27.13 389.33 26.73 365.66 26.96 342.00 C 26.90 264.15 26.85 186.86 26.88 109.00 C 27.09 80.39 26.69 51.63 27.04 23.04 Z" fill="#d5e7f3" />
<path d="M 43.41 41.21 C 46.77 40.36 50.54 40.84 54.00 40.76 C 74.00 40.75 94.00 40.78 114.00 40.78 C 118.68 40.81 123.31 40.53 127.98 41.00 C 128.38 46.02 128.06 50.98 128.14 56.00 C 128.23 69.34 128.42 82.66 128.10 96.00 C 127.85 102.28 128.52 108.56 127.85 114.78 C 106.24 115.11 84.59 114.74 62.97 114.99 C 56.42 115.38 49.87 115.20 43.32 114.75 C 43.19 112.50 43.11 110.26 43.14 108.01 C 43.32 85.85 43.00 63.34 43.41 41.21 Z" fill="#eaf2f6" />
<path d="M 147.86 42.97 C 149.44 43.00 151.01 43.08 152.57 43.29 C 153.83 47.08 154.65 50.95 155.52 54.84 C 157.65 51.42 157.79 46.94 159.33 43.19 C 160.88 43.09 162.43 43.01 163.98 42.98 C 163.22 46.96 161.67 50.60 160.47 54.45 C 159.76 56.71 159.06 58.94 157.82 60.98 C 156.35 60.89 154.88 60.79 153.41 60.70 C 151.42 54.91 148.97 48.99 147.86 42.97 Z" fill="#131f29" />
<path d="M 166.03 43.12 C 170.39 43.01 174.74 43.00 179.09 43.12 C 179.07 44.35 179.05 45.58 179.01 46.81 C 176.11 46.85 173.21 46.91 170.31 47.16 C 170.34 48.01 170.36 48.86 170.38 49.71 C 172.93 49.81 175.48 49.90 178.03 50.07 C 177.98 51.26 177.93 52.45 177.87 53.65 C 175.32 53.63 172.79 53.65 170.26 54.03 C 170.28 54.93 170.29 55.82 170.30 56.72 C 173.27 56.81 176.24 56.89 179.20 57.03 C 179.29 58.32 179.23 59.58 179.04 60.81 C 174.70 60.88 170.37 60.88 166.04 60.76 C 165.51 54.93 165.69 48.96 166.03 43.12 Z" fill="#111d27" />
<path d="M 182.21 43.09 C 183.69 43.00 185.17 43.07 186.65 43.14 C 186.71 45.34 186.83 47.54 187.07 49.73 C 188.97 49.73 190.86 49.71 192.75 49.67 C 192.92 47.46 193.07 45.26 193.22 43.05 C 194.72 43.05 196.22 43.08 197.73 43.12 C 197.88 48.98 197.94 54.86 197.71 60.72 C 196.22 60.73 194.73 60.74 193.25 60.76 C 193.10 58.46 192.99 56.16 192.90 53.86 C 190.87 53.58 188.99 53.59 186.96 53.84 C 186.83 56.12 186.72 58.40 186.59 60.68 C 185.13 60.70 183.67 60.72 182.22 60.74 C 181.88 54.91 182.05 48.93 182.21 43.09 Z" fill="#0f1b24" />
<path d="M 201.32 43.19 C 202.83 43.07 204.33 43.09 205.85 43.09 C 205.96 48.99 206.31 54.96 205.87 60.85 C 204.33 60.84 202.79 60.83 201.25 60.81 C 201.11 54.95 201.13 49.05 201.32 43.19 Z" fill="#121d27" />
<path d="M 225.01 47.93 C 223.84 48.30 222.57 49.04 221.32 48.97 C 220.16 48.23 219.08 47.37 217.90 46.66 C 213.05 45.92 212.70 53.58 214.97 56.09 C 217.53 58.58 219.73 55.82 222.07 54.59 C 222.98 54.82 223.88 55.06 224.78 55.30 C 225.02 57.38 223.62 58.88 222.05 60.01 C 217.80 62.43 211.67 61.05 209.68 56.33 C 208.46 53.08 208.36 48.44 210.61 45.60 C 214.18 40.77 223.48 41.65 225.01 47.93 Z" fill="#14202a" />
<path d="M 227.38 43.24 C 228.89 43.06 230.37 43.07 231.89 43.05 C 232.24 47.62 231.95 52.19 232.21 56.76 C 234.84 56.81 237.47 56.87 240.10 57.00 C 240.07 58.26 240.04 59.52 239.99 60.78 C 235.78 60.86 231.58 60.90 227.38 60.72 C 227.42 54.89 227.33 49.06 227.38 43.24 Z" fill="#0e1a24" />
<path d="M 242.48 43.28 C 246.89 42.82 251.39 43.01 255.82 43.19 C 255.78 44.36 255.74 45.54 255.71 46.72 C 252.83 46.86 249.95 46.92 247.07 47.08 C 247.09 47.97 247.11 48.86 247.12 49.74 C 249.65 49.78 252.18 49.90 254.70 50.19 C 254.67 51.34 254.65 52.48 254.63 53.62 C 252.12 53.73 249.60 53.84 247.09 54.03 C 247.12 54.94 247.15 55.84 247.18 56.75 C 250.11 56.75 253.04 56.77 255.96 57.02 C 255.93 58.26 255.90 59.50 255.86 60.74 C 251.37 60.86 246.88 60.89 242.39 60.67 C 242.35 54.88 242.35 49.07 242.48 43.28 Z" fill="#0e1a24" />
<path d="M 86.10 50.31 L 86.87 50.03 C 86.90 52.31 86.94 54.60 87.00 56.89 C 91.38 58.80 99.24 56.30 103.28 59.73 C 105.61 62.81 106.48 67.19 108.04 70.73 C 109.98 69.55 111.36 68.06 113.84 68.78 C 116.38 69.19 116.95 72.60 115.13 74.08 C 113.86 74.67 112.41 74.97 111.06 75.35 C 111.91 78.30 115.48 79.95 115.17 82.97 C 114.94 88.93 115.14 94.91 114.86 100.85 C 114.43 104.11 110.78 103.88 108.30 103.66 C 106.10 103.66 106.39 100.82 104.83 99.88 C 92.46 99.91 80.00 100.43 67.65 99.53 C 67.17 100.78 66.71 102.05 66.24 103.31 C 63.85 103.80 59.39 104.72 58.50 101.53 C 57.90 95.42 58.08 89.14 58.03 83.00 C 57.95 80.07 60.26 78.60 62.09 76.71 C 61.27 79.37 60.92 81.54 61.67 84.28 C 62.33 87.17 62.96 90.16 64.06 92.92 C 64.62 94.40 65.86 95.24 67.32 95.70 C 76.09 98.14 84.11 97.32 93.04 97.51 C 97.96 97.60 103.21 96.80 107.69 94.72 C 109.70 93.04 110.27 89.50 110.91 87.07 C 108.53 87.20 105.95 87.17 103.65 87.77 C 98.74 89.23 93.11 88.52 88.00 88.75 C 82.49 88.62 76.81 89.16 71.34 88.60 C 68.29 86.78 66.69 86.54 63.13 86.87 L 63.11 86.13 C 64.97 86.17 66.95 86.43 68.79 86.08 C 70.25 84.80 71.38 82.99 73.02 81.97 C 76.33 80.67 80.50 80.99 84.01 80.97 C 88.76 81.12 93.75 80.71 98.43 81.57 C 101.42 81.95 102.72 84.71 105.07 86.38 C 107.04 86.74 108.97 86.55 110.91 86.16 C 111.69 83.73 112.06 81.53 111.97 78.97 C 110.64 80.05 110.72 82.39 109.69 83.72 C 108.32 85.02 106.57 85.01 104.91 84.30 C 106.60 83.78 108.41 83.91 109.45 82.33 C 110.53 81.19 109.40 78.96 109.25 77.61 L 110.98 78.08 C 109.65 76.15 108.55 74.30 105.92 74.29 C 97.94 73.95 89.94 73.84 81.95 73.85 C 77.30 74.17 72.65 74.61 67.98 74.81 C 67.30 74.62 66.61 74.44 65.91 74.26 C 64.58 75.00 63.35 75.86 62.09 76.71 C 61.21 74.20 56.99 74.85 56.98 71.99 C 56.70 69.64 58.94 68.57 60.98 68.76 C 62.83 68.78 63.74 70.59 64.89 71.77 C 66.08 68.11 67.09 64.25 68.82 60.81 C 70.41 58.16 74.23 58.04 76.96 57.80 C 79.88 57.46 83.27 58.06 85.99 56.91 C 86.02 54.71 85.96 52.50 86.10 50.31 Z" fill="#354451" />
<path d="M 73.19 59.26 C 81.66 58.42 91.37 58.33 99.82 59.24 L 100.14 60.20 C 91.04 60.08 81.96 60.04 72.86 60.17 L 73.19 59.26 Z" fill="#fdeb1d" />
<path d="M 70.41 62.34 C 76.42 61.06 83.06 61.82 89.21 61.68 C 87.07 65.58 83.95 67.84 80.71 70.69 C 76.00 71.29 71.71 73.07 66.87 72.92 C 67.80 69.32 69.09 65.80 70.41 62.34 Z" fill="#d8ebf6" />
<path d="M 89.21 61.68 C 93.36 61.66 97.66 61.44 101.76 62.12 C 104.09 64.50 104.97 69.38 105.90 72.62 C 103.72 72.66 101.54 72.72 99.36 72.85 C 99.92 72.26 100.48 71.66 101.04 71.05 C 97.49 70.77 94.10 70.65 90.67 71.82 C 87.57 73.03 83.99 71.07 80.71 70.69 C 83.95 67.84 87.07 65.58 89.21 61.68 Z" fill="#afd3e9" />
<path d="M 150.27 66.19 C 151.79 66.08 153.29 66.11 154.82 66.13 C 154.94 72.08 155.30 78.07 154.91 84.00 C 153.34 84.01 151.77 83.99 150.20 83.93 C 150.15 78.02 150.04 72.08 150.27 66.19 Z" fill="#101b25" />
<path d="M 158.51 66.27 C 159.90 66.12 161.28 66.13 162.68 66.18 C 165.59 69.08 167.19 72.79 169.87 75.96 C 169.89 72.65 169.74 69.37 170.09 66.07 C 171.58 66.11 173.06 66.16 174.54 66.22 C 174.64 72.10 174.67 77.99 174.66 83.88 C 173.21 83.92 171.76 83.92 170.31 83.90 C 167.70 81.10 166.18 77.11 163.15 74.82 C 163.08 77.88 163.14 80.94 162.92 84.01 C 161.39 83.98 159.87 83.94 158.34 83.86 C 158.28 78.00 158.38 72.13 158.51 66.27 Z" fill="#14202a" />
<path d="M 192.36 69.01 C 191.59 69.79 190.80 70.55 190.00 71.30 C 187.31 70.60 184.70 68.46 182.34 70.96 C 184.62 73.46 189.38 72.74 191.76 75.21 C 194.05 77.79 193.28 81.63 190.31 83.31 C 186.21 85.53 179.23 84.80 177.00 80.16 C 177.98 79.49 178.97 78.83 179.95 78.16 C 182.73 79.88 184.52 81.03 187.93 79.99 L 187.71 78.23 C 184.87 77.01 180.51 76.98 178.64 74.33 C 176.66 71.73 177.86 68.09 180.66 66.66 C 184.45 64.79 189.63 65.62 192.36 69.01 Z" fill="#14202a" />
<path d="M 195.84 66.14 C 199.49 66.11 203.79 65.51 207.29 66.73 C 211.05 68.16 212.24 73.50 209.20 76.20 C 206.93 78.51 203.39 78.00 200.41 78.36 C 200.29 80.22 200.18 82.08 200.04 83.94 C 198.62 83.95 197.20 83.97 195.78 83.99 C 195.25 78.23 195.45 71.92 195.84 66.14 Z" fill="#14202a" />
<path d="M 213.45 66.30 C 217.84 65.92 222.31 66.07 226.71 66.27 C 226.74 67.47 226.77 68.66 226.81 69.86 C 223.94 70.09 221.08 70.14 218.20 70.19 C 218.21 71.07 218.20 71.95 218.20 72.82 C 220.74 72.96 223.28 73.08 225.82 73.22 C 225.81 74.40 225.81 75.58 225.80 76.76 C 223.27 76.91 220.75 77.05 218.22 77.20 C 218.21 78.09 218.20 78.97 218.18 79.86 C 221.09 80.04 224.00 80.10 226.92 80.17 C 226.94 81.43 226.96 82.68 226.98 83.94 C 222.40 84.27 217.85 84.39 213.28 83.88 C 213.40 78.02 213.28 72.16 213.45 66.30 Z" fill="#101b25" />
<path d="M 241.55 66.43 C 243.40 67.42 245.52 69.37 244.78 71.69 C 243.90 71.90 243.02 72.11 242.13 72.31 C 240.05 71.06 238.11 68.56 235.58 70.43 C 233.38 72.44 233.29 77.67 235.45 79.74 C 238.33 81.54 239.90 79.17 242.17 77.74 C 243.07 77.90 243.96 78.07 244.86 78.25 C 245.44 80.49 244.09 82.14 242.38 83.38 C 237.69 86.10 231.02 84.10 229.33 78.74 C 228.65 75.39 228.68 70.88 231.26 68.27 C 233.70 65.44 238.26 65.18 241.55 66.43 Z" fill="#15202a" />
<path d="M 246.93 66.17 C 251.94 66.04 256.96 66.09 261.97 66.18 C 261.96 67.39 261.95 68.60 261.94 69.81 C 260.32 69.97 258.69 70.12 257.06 70.26 C 256.67 74.84 256.94 79.38 256.79 83.97 C 255.24 84.03 253.70 84.04 252.15 83.99 C 251.95 79.41 252.30 74.86 251.88 70.29 C 250.25 70.15 248.61 70.02 246.98 69.84 C 246.64 68.55 246.63 67.33 246.93 66.17 Z" fill="#101b25" />
<path d="M 268.89 66.11 C 269.27 72.05 269.29 78.13 269.12 84.07 C 267.69 84.08 266.25 84.09 264.81 84.09 C 264.42 78.49 264.32 72.67 264.75 67.08 C 264.48 65.37 267.84 66.40 268.89 66.11 Z" fill="#131f29" />
<path d="M 277.35 66.31 C 281.56 64.81 286.56 66.28 288.48 70.51 C 289.93 74.30 289.71 79.60 286.52 82.48 C 282.25 85.96 274.79 84.71 272.64 79.37 C 271.02 74.83 272.29 68.13 277.35 66.31 Z" fill="#14202a" />
<path d="M 292.36 66.22 C 293.69 66.10 295.25 65.92 296.54 66.37 C 299.29 69.28 300.90 73.02 303.65 75.99 C 303.61 72.62 303.28 69.37 303.84 66.02 C 305.23 66.04 306.63 66.05 308.03 66.05 C 308.40 71.99 308.43 78.14 308.00 84.07 C 306.72 84.14 305.45 84.13 304.18 84.03 C 301.27 81.62 300.00 77.32 297.07 74.81 C 296.89 77.86 296.93 80.92 296.83 83.97 C 295.30 83.99 293.76 83.97 292.23 83.93 C 292.11 78.04 292.05 72.10 292.36 66.22 Z" fill="#14202a" />
<path d="M 62.65 70.34 C 62.84 71.22 63.02 72.10 63.19 72.99 C 60.82 74.25 57.04 73.98 58.37 70.36 C 60.03 69.87 60.99 69.86 62.65 70.34 Z" fill="#eecf23" />
<path d="M 110.17 70.14 C 112.15 69.66 114.89 69.32 115.28 72.00 C 113.69 75.41 109.13 73.86 110.17 70.14 Z" fill="#f9d024" />
<path d="M 200.38 70.29 C 202.41 70.14 204.25 69.80 205.99 71.15 C 205.91 72.02 205.81 72.89 205.71 73.75 C 203.81 74.32 202.16 74.81 200.24 73.96 C 200.24 72.73 200.29 71.51 200.38 70.29 Z" fill="#e0ecf4" />
<path d="M 279.29 70.04 C 280.99 69.30 282.80 69.69 283.70 71.41 C 284.73 73.63 284.64 76.39 283.78 78.65 C 282.39 81.16 278.73 80.94 277.51 78.43 C 276.35 76.01 276.58 71.40 279.29 70.04 Z" fill="#d6e8f4" />
<path d="M 65.91 74.26 C 66.61 74.44 67.30 74.62 67.98 74.81 C 69.29 76.72 71.25 78.20 70.65 80.73 C 70.46 82.50 69.40 83.38 68.08 84.42 C 69.42 81.61 70.13 79.76 67.32 77.60 C 64.44 75.81 63.08 79.77 62.58 81.90 C 62.28 82.70 61.98 83.49 61.67 84.28 C 60.92 81.54 61.27 79.37 62.09 76.71 C 63.35 75.86 64.58 75.00 65.91 74.26 Z" fill="#9e8e3b" />
<path d="M 81.95 73.85 C 89.94 73.84 97.94 73.95 105.92 74.29 C 108.55 74.30 109.65 76.15 110.98 78.08 L 109.25 77.61 C 107.53 77.07 105.81 76.54 104.06 76.09 C 102.47 77.87 100.99 79.73 102.62 82.07 C 103.37 82.83 104.14 83.57 104.91 84.30 C 106.57 85.01 108.32 85.02 109.69 83.72 C 110.72 82.39 110.64 80.05 111.97 78.97 C 112.06 81.53 111.69 83.73 110.91 86.16 C 108.97 86.55 107.04 86.74 105.07 86.38 C 102.72 84.71 101.42 81.95 98.43 81.57 C 93.75 80.71 88.76 81.12 84.01 80.97 C 80.50 80.99 76.33 80.67 73.02 81.97 C 71.38 82.99 70.25 84.80 68.79 86.08 C 66.95 86.43 64.97 86.17 63.11 86.13 L 63.13 86.87 C 66.69 86.54 68.29 86.78 71.34 88.60 C 76.81 89.16 82.49 88.62 88.00 88.75 C 93.11 88.52 98.74 89.23 103.65 87.77 C 105.95 87.17 108.53 87.20 110.91 87.07 C 110.27 89.50 109.70 93.04 107.69 94.72 C 103.21 96.80 97.96 97.60 93.04 97.51 C 84.11 97.32 76.09 98.14 67.32 95.70 C 65.86 95.24 64.62 94.40 64.06 92.92 C 62.96 90.16 62.33 87.17 61.67 84.28 C 61.98 83.49 62.28 82.70 62.58 81.90 L 63.00 82.86 C 63.82 85.23 66.10 85.94 68.08 84.42 C 69.40 83.38 70.46 82.50 70.65 80.73 C 71.25 78.20 69.29 76.72 67.98 74.81 C 72.65 74.61 77.30 74.17 81.95 73.85 Z" fill="#f7ce25" />
<path d="M 104.06 76.09 C 105.81 76.54 107.53 77.07 109.25 77.61 C 107.90 77.82 106.54 78.02 105.18 78.21 C 105.16 79.10 105.14 79.99 105.12 80.89 C 104.60 80.35 104.09 79.81 103.58 79.27 C 103.04 80.00 102.72 80.93 102.62 82.07 C 100.99 79.73 102.47 77.87 104.06 76.09 Z" fill="#565c4f" />
<path d="M 67.32 77.60 C 70.13 79.76 69.42 81.61 68.08 84.42 C 66.44 83.75 64.74 83.21 63.00 82.86 L 62.58 81.90 C 63.08 79.77 64.44 75.81 67.32 77.60 Z" fill="#a1b7c6" />
<path d="M 105.18 78.21 C 106.54 78.02 107.90 77.82 109.25 77.61 C 109.40 78.96 110.53 81.19 109.45 82.33 C 108.41 83.91 106.60 83.78 104.91 84.30 C 106.41 83.05 107.87 81.85 108.95 80.20 C 108.21 79.76 107.48 79.31 106.75 78.86 C 106.66 79.61 106.57 80.36 106.48 81.11 L 105.12 80.89 C 105.14 79.99 105.16 79.10 105.18 78.21 Z" fill="#aac5db" />
<path d="M 103.58 79.27 C 104.09 79.81 104.60 80.35 105.12 80.89 L 106.48 81.11 C 106.57 80.36 106.66 79.61 106.75 78.86 C 107.48 79.31 108.21 79.76 108.95 80.20 C 107.87 81.85 106.41 83.05 104.91 84.30 C 104.14 83.57 103.37 82.83 102.62 82.07 C 102.72 80.93 103.04 80.00 103.58 79.27 Z" fill="#758896" />
<path d="M 63.00 82.86 C 64.74 83.21 66.44 83.75 68.08 84.42 C 66.10 85.94 63.82 85.23 63.00 82.86 Z" fill="#696847" />
<path d="M 67.92 89.83 C 69.74 89.83 68.94 92.81 68.90 93.92 C 66.46 94.16 66.25 93.95 64.93 92.00 C 65.63 91.04 66.46 89.22 67.92 89.83 Z" fill="#525d63" />
<path d="M 104.08 90.13 C 105.04 90.03 106.01 90.00 106.98 90.06 C 107.33 91.32 107.32 92.59 106.96 93.85 C 105.99 93.86 105.01 93.86 104.04 93.85 C 103.90 92.59 103.91 91.35 104.08 90.13 Z" fill="#616e76" />
<path d="M 150.29 90.35 C 153.70 90.18 157.19 90.10 160.58 90.51 C 162.98 90.85 164.96 92.62 165.33 95.05 C 165.98 97.89 163.77 99.47 162.95 101.99 C 163.70 104.07 164.77 106.06 165.70 108.07 C 164.06 108.00 162.00 108.36 160.50 107.60 C 158.75 105.48 158.74 101.25 155.16 101.94 C 155.01 103.94 154.89 105.94 154.75 107.94 C 153.23 107.97 151.71 107.97 150.19 107.96 C 150.16 102.10 149.97 96.19 150.29 90.35 Z" fill="#121e28" />
<path d="M 168.48 90.39 C 172.90 90.06 177.38 90.31 181.81 90.33 C 181.86 91.54 181.91 92.76 181.95 93.98 C 179.07 94.19 176.19 94.25 173.30 94.33 C 173.26 95.18 173.20 96.03 173.15 96.88 C 175.68 97.05 178.22 97.18 180.76 97.31 C 180.79 98.48 180.82 99.64 180.85 100.80 C 178.29 100.98 175.73 101.10 173.17 101.20 C 173.14 102.13 173.11 103.06 173.08 103.98 C 176.06 104.16 179.04 104.19 182.02 104.21 C 182.11 105.43 182.13 106.66 182.09 107.91 C 177.51 108.23 172.98 108.34 168.41 107.81 C 168.50 102.00 168.36 96.19 168.48 90.39 Z" fill="#101b25" />
<path d="M 185.11 90.31 C 188.75 90.27 192.75 89.84 196.28 90.76 C 200.30 92.19 201.36 97.42 198.46 100.44 C 196.60 102.70 192.76 102.15 190.11 102.44 C 189.84 104.23 189.65 106.02 189.51 107.83 C 188.00 107.95 186.50 108.02 184.99 108.05 C 184.78 102.19 184.49 96.14 185.11 90.31 Z" fill="#131f29" />
<path d="M 208.27 90.17 C 212.34 89.14 216.72 90.64 218.36 94.71 C 219.70 98.46 219.74 103.62 216.48 106.44 C 212.46 109.99 205.58 108.70 203.00 104.03 C 200.41 99.15 202.27 91.38 208.27 90.17 Z" fill="#14202b" />
<path d="M 222.28 90.34 C 225.43 90.14 228.66 90.10 231.81 90.34 C 234.82 90.58 237.62 92.76 237.47 96.00 C 237.52 98.10 235.36 99.97 234.99 101.95 C 235.82 104.02 236.88 105.99 237.77 108.03 C 236.16 107.92 233.99 108.34 232.58 107.50 C 231.50 105.79 230.63 103.95 229.71 102.17 C 228.86 102.11 228.02 102.06 227.18 102.00 C 227.04 104.00 226.92 106.01 226.80 108.02 C 225.27 108.06 223.74 108.04 222.21 107.97 C 222.18 102.11 221.92 96.19 222.28 90.34 Z" fill="#121d27" />
<path d="M 239.18 90.24 C 244.32 90.01 249.55 90.06 254.69 90.29 C 254.71 91.47 254.73 92.65 254.75 93.83 C 252.95 94.07 251.14 94.26 249.33 94.44 C 249.07 98.98 249.43 103.51 249.12 108.05 C 247.68 108.06 246.24 108.06 244.80 108.05 C 244.27 103.51 244.85 98.93 244.63 94.35 C 242.79 94.18 240.95 94.02 239.11 93.83 C 239.10 92.63 239.12 91.44 239.18 90.24 Z" fill="#14202a" />
<path d="M 66.94 91.29 L 67.77 91.29 L 68.18 92.01 L 67.78 92.74 L 66.95 92.74 L 66.53 92.02 L 66.94 91.29 Z" fill="#c9deea" />
<path d="M 105.11 91.26 L 105.93 91.27 L 106.32 92.00 L 105.91 92.73 L 105.09 92.72 L 104.69 91.99 L 105.11 91.26 Z" fill="#f9fcff" />
<path d="M 74.02 92.08 C 83.01 91.91 92.12 91.66 101.10 92.14 C 101.37 93.36 101.25 94.55 100.74 95.68 C 94.25 96.64 87.54 96.51 80.99 96.31 C 78.36 96.19 75.91 96.29 73.34 95.65 C 72.78 94.66 72.02 91.76 74.02 92.08 Z" fill="#17232d" />
<path d="M 155.12 94.11 C 157.27 94.03 160.87 93.52 160.72 96.71 C 159.72 98.85 156.84 97.89 154.94 98.06 C 154.86 96.72 154.92 95.40 155.12 94.11 Z" fill="#d6ebf8" />
<path d="M 190.07 94.16 C 191.59 94.10 193.10 94.21 194.60 94.41 C 195.15 95.47 195.27 96.63 194.97 97.89 C 193.11 98.40 191.66 98.49 189.74 98.26 C 189.48 96.77 189.59 95.40 190.07 94.16 Z" fill="#d6e9f5" />
<path d="M 209.29 94.05 C 210.90 93.35 212.82 93.82 213.69 95.42 C 214.73 97.64 214.62 100.42 213.77 102.69 C 212.41 104.93 209.47 105.49 207.86 103.19 C 206.33 100.74 206.44 95.56 209.29 94.05 Z" fill="#d4e6f2" />
<path d="M 227.14 94.16 C 228.96 94.21 232.55 93.36 232.82 96.01 C 232.63 98.89 228.94 97.93 227.01 98.01 C 226.98 96.72 227.02 95.43 227.14 94.16 Z" fill="#cbe2f1" />
<path d="M 45.22 126.03 C 58.10 125.58 71.10 125.98 84.00 125.83 C 174.67 125.82 265.34 125.90 356.00 125.77 C 360.99 125.80 365.94 125.57 370.93 125.93 L 370.94 126.98 C 366.63 127.24 362.32 127.15 358.00 127.17 C 258.33 127.13 158.67 127.16 59.00 127.20 C 54.31 127.18 49.67 127.34 44.99 126.97 L 45.22 126.03 Z" fill="#387bab" />
<path d="M 63.07 149.13 C 65.40 149.06 64.69 150.95 65.35 152.57 C 66.67 152.99 69.01 152.97 69.57 154.48 C 69.93 156.52 69.90 158.65 69.78 160.72 L 68.06 161.02 C 67.80 158.85 68.45 155.74 66.91 154.02 C 64.14 154.38 65.24 158.93 64.85 160.89 L 63.03 160.97 C 62.98 157.03 62.83 153.06 63.07 149.13 Z" fill="#2c3944" />
<path d="M 83.95 149.20 L 85.07 149.07 C 85.65 153.01 85.41 157.15 85.09 161.10 L 83.90 160.89 C 83.43 157.21 83.32 152.85 83.95 149.20 Z" fill="#04070f" />
<path d="M 190.75 148.73 C 189.50 151.84 187.49 154.32 188.09 157.85 C 188.71 160.08 190.03 162.13 190.92 164.26 C 185.44 162.11 185.29 150.95 190.75 148.73 Z" fill="#3f4f5b" />
<path d="M 234.14 148.76 C 239.26 151.61 239.40 161.33 234.09 164.13 C 235.03 161.34 236.40 159.04 236.25 156.00 C 236.19 153.52 234.88 151.14 234.14 148.76 Z" fill="#404f5a" />
<path d="M 44.89 150.03 L 46.55 150.47 C 47.67 152.82 48.34 155.40 49.24 157.84 C 51.27 155.94 50.68 149.97 54.07 149.97 C 53.40 152.84 52.39 155.58 51.36 158.34 C 50.88 159.21 50.51 161.60 49.10 161.04 C 46.98 157.85 45.71 153.76 44.89 150.03 Z" fill="#2d3943" />
<path d="M 72.20 150.30 L 72.80 150.30 L 72.80 150.89 L 72.20 150.89 L 72.20 150.30 Z" fill="#000309" />
<path d="M 104.12 150.08 L 105.73 150.30 C 107.10 152.83 107.84 155.66 109.11 158.25 C 110.40 156.01 111.09 153.54 112.24 151.25 C 112.60 150.25 113.37 149.90 114.54 150.21 C 114.58 153.69 114.77 157.18 114.65 160.66 L 113.02 161.00 C 113.00 158.68 112.98 156.37 112.82 154.05 C 111.48 156.37 110.98 159.46 109.04 161.31 C 107.27 158.84 106.70 155.79 105.27 153.07 C 105.25 155.63 105.58 158.31 105.16 160.83 L 104.07 161.12 C 103.83 157.45 103.76 153.73 104.12 150.08 Z" fill="#364450" />
<path d="M 117.01 150.20 L 117.84 150.19 L 118.26 150.92 L 117.86 151.65 L 117.04 151.66 L 116.61 150.94 L 117.01 150.20 Z" fill="#34404a" />
<path d="M 128.17 150.19 C 129.96 149.00 131.09 151.79 129.00 152.20 C 127.86 151.89 127.59 151.22 128.17 150.19 Z" fill="#566a78" />
<path d="M 138.29 150.18 C 140.87 149.39 142.97 151.33 143.29 153.85 C 141.97 153.07 140.68 151.73 139.19 151.35 C 137.98 151.97 137.06 152.59 137.01 154.10 C 136.96 156.33 136.45 159.06 139.14 159.88 C 140.62 159.57 141.98 158.65 143.36 158.05 C 142.60 161.17 140.16 161.69 137.40 160.74 C 134.02 158.45 134.36 151.73 138.29 150.18 Z" fill="#34414c" />
<path d="M 191.80 150.09 C 193.39 151.46 194.35 153.12 195.66 154.76 C 196.86 152.98 197.52 150.42 199.85 149.87 C 198.90 152.39 197.14 154.69 196.52 157.29 C 196.12 158.31 196.45 160.66 195.20 160.96 C 195.07 156.86 192.93 153.85 191.80 150.09 Z" fill="#2e3a44" />
<path d="M 208.17 150.09 L 208.99 149.43 L 209.76 150.13 C 210.21 153.65 209.95 157.30 209.88 160.84 L 208.09 160.86 C 208.04 157.29 207.79 153.64 208.17 150.09 Z" fill="#46545e" />
<path d="M 211.97 150.02 L 213.06 150.02 C 213.21 153.65 213.19 157.24 213.02 160.86 L 212.02 160.86 C 211.81 157.23 211.80 153.65 211.97 150.02 Z" fill="#0c1a25" />
<path d="M 58.06 152.79 C 60.99 152.50 61.93 155.04 61.84 157.49 C 60.18 157.63 58.53 157.79 56.88 157.96 C 56.85 160.89 59.47 159.14 61.34 159.38 C 60.90 161.63 58.99 161.23 57.20 161.08 C 53.29 160.33 53.76 152.53 58.06 152.79 Z" fill="#29333d" />
<path d="M 71.90 152.99 L 73.12 153.09 C 73.36 155.63 73.45 158.31 72.95 160.83 L 71.87 161.06 C 71.64 158.34 71.65 155.71 71.90 152.99 Z" fill="#01040a" />
<path d="M 82.14 155.88 C 80.80 155.31 79.48 154.70 78.16 154.09 C 76.54 155.92 76.37 158.19 78.14 159.99 C 79.49 159.44 80.85 158.91 82.22 158.42 C 81.52 160.22 81.20 161.24 78.98 161.21 C 75.23 161.43 74.16 157.48 75.54 154.62 C 76.77 151.71 82.23 152.27 82.14 155.88 Z" fill="#202b34" />
<path d="M 90.94 152.75 C 93.58 152.74 94.71 155.23 93.93 157.53 C 92.26 157.63 90.58 157.78 88.91 157.99 C 89.93 160.64 91.93 159.22 94.04 159.25 C 93.83 161.62 90.99 161.33 89.27 160.97 C 85.41 159.45 86.41 152.26 90.94 152.75 Z" fill="#2a353e" />
<path d="M 96.05 153.09 C 97.85 151.93 98.97 154.64 96.88 155.09 C 95.73 154.81 95.45 154.14 96.05 153.09 Z" fill="#3a4852" />
<path d="M 116.97 153.21 L 117.98 152.95 C 118.15 155.61 118.12 158.24 117.93 160.90 L 116.82 160.88 C 116.69 158.38 116.54 155.68 116.97 153.21 Z" fill="#0a1520" />
<path d="M 120.10 153.00 C 122.74 153.18 121.42 155.31 121.59 157.12 C 121.28 158.31 121.79 161.04 120.10 161.10 C 119.91 158.40 119.94 155.70 120.10 153.00 Z" fill="#121e29" />
<path d="M 123.08 152.81 C 123.96 152.96 124.83 153.12 125.70 153.30 C 126.55 155.82 126.34 158.32 126.20 160.93 L 125.12 160.94 C 125.01 157.81 125.10 155.39 123.08 152.81 Z" fill="#1a232d" />
<path d="M 128.06 153.09 L 129.91 153.15 C 130.03 155.73 130.03 158.29 129.91 160.88 L 128.04 160.93 C 127.97 158.31 127.98 155.70 128.06 153.09 Z" fill="#445563" />
<path d="M 146.43 153.23 C 149.65 151.81 152.38 154.62 151.93 157.81 C 151.37 161.08 147.20 162.40 145.16 159.66 C 144.40 157.61 144.31 154.50 146.43 153.23 Z" fill="#293540" />
<path d="M 155.29 153.06 C 156.99 152.82 158.68 152.76 159.60 154.49 C 160.64 156.84 160.44 161.18 156.94 161.13 C 152.45 161.47 151.52 154.78 155.29 153.06 Z" fill="#2c3843" />
<path d="M 162.13 153.13 C 163.64 153.00 165.23 152.89 166.73 153.11 C 169.08 154.77 169.57 158.37 167.33 160.31 C 166.17 160.80 164.92 161.11 163.71 161.47 C 163.31 162.49 162.77 163.39 162.08 164.17 C 161.88 160.51 161.83 156.79 162.13 153.13 Z" fill="#28353f" />
<path d="M 173.07 152.93 C 175.67 152.52 177.12 155.17 176.77 157.45 C 175.16 157.66 173.55 157.88 171.94 158.12 C 172.31 160.56 174.57 159.29 176.27 159.44 C 176.00 161.79 173.05 161.18 171.44 160.72 C 168.87 159.05 169.33 152.94 173.07 152.93 Z" fill="#3e4d58" />
<path d="M 178.16 153.19 C 179.40 153.08 180.64 152.99 181.88 152.93 C 181.15 154.15 179.81 155.55 179.84 157.02 C 179.35 158.85 180.69 161.01 178.02 161.01 C 177.97 158.43 177.85 155.76 178.16 153.19 Z" fill="#3f505e" />
<path d="M 203.92 152.88 C 206.27 153.09 206.38 155.18 206.94 156.98 C 205.42 157.19 203.89 157.37 202.37 157.63 C 200.71 160.43 204.98 159.52 206.37 159.43 C 205.80 161.65 204.07 161.07 202.27 160.93 C 198.44 159.47 199.50 152.20 203.92 152.88 Z" fill="#2c3a45" />
<path d="M 216.48 153.34 C 218.29 152.39 221.62 152.82 221.98 155.22 C 222.39 157.79 222.17 160.86 218.93 161.09 C 214.65 161.92 213.62 155.26 216.48 153.34 Z" fill="#2b3843" />
<path d="M 222.93 152.99 C 225.43 153.19 224.63 155.38 225.20 157.20 C 225.91 157.30 226.62 157.39 227.33 157.49 C 226.98 158.81 226.54 160.05 225.95 161.29 C 223.81 159.67 223.54 155.48 222.93 152.99 Z" fill="#35424c" />
<path d="M 227.33 153.39 C 229.01 152.26 229.78 154.86 228.80 155.97 C 227.03 157.19 226.24 154.54 227.33 153.39 Z" fill="#2d3a45" />
<path d="M 233.06 152.96 C 232.72 155.77 231.85 158.40 230.89 161.04 C 228.48 160.96 228.73 158.35 229.84 156.91 C 230.78 155.64 231.58 153.64 233.06 152.96 Z" fill="#394752" />
<path d="M 57.26 154.17 C 58.34 153.57 60.41 154.35 59.60 155.78 C 58.31 156.88 54.82 155.90 57.26 154.17 Z" fill="#bfd1da" />
<path d="M 90.18 154.06 C 91.87 153.64 92.83 155.59 90.99 156.25 C 89.16 156.59 88.39 154.90 90.18 154.06 Z" fill="#cbdce4" />
<path d="M 148.00 153.77 C 150.88 154.76 151.09 159.26 148.01 160.00 C 145.04 158.89 145.56 155.18 148.00 153.77 Z" fill="#d7eaf5" />
<path d="M 157.58 154.40 C 159.53 156.07 158.95 158.79 156.90 160.11 C 155.36 159.41 154.05 158.22 154.49 156.37 C 155.23 155.06 155.80 153.53 157.58 154.40 Z" fill="#ddf0f9" />
<path d="M 164.30 154.32 C 167.54 153.23 168.00 159.64 165.00 160.00 C 162.69 159.40 162.84 155.64 164.30 154.32 Z" fill="#edf8fc" />
<path d="M 173.08 154.20 C 173.97 154.10 174.54 154.43 174.79 155.20 C 174.31 157.39 170.42 155.48 173.08 154.20 Z" fill="#e7f4f9" />
<path d="M 202.30 154.39 C 203.33 153.39 205.53 154.36 204.66 155.84 C 203.59 156.76 201.27 155.98 202.30 154.39 Z" fill="#dae8ed" />
<path d="M 217.47 154.42 C 220.98 152.55 222.04 159.15 218.86 159.87 C 216.15 160.32 215.29 155.68 217.47 154.42 Z" fill="#daecf7" />
<path d="M 96.15 159.30 L 96.98 159.30 L 97.40 160.03 L 96.99 160.76 L 96.16 160.77 L 95.75 160.04 L 96.15 159.30 Z" fill="#10191f" />
<path d="M 49.34 174.30 C 54.29 173.24 56.36 180.58 54.03 184.01 C 52.10 187.05 48.11 186.46 46.43 183.52 C 45.22 180.27 45.34 175.52 49.34 174.30 Z" fill="#29353e" />
<path d="M 49.29 176.04 C 53.53 174.87 53.66 180.95 52.21 183.27 C 51.08 184.82 49.86 184.08 48.35 183.74 C 47.78 181.31 46.90 177.79 49.29 176.04 Z" fill="#d9ecf8" />
<path d="M 55.98 177.02 C 58.44 177.36 57.78 179.60 58.57 181.45 C 60.27 182.23 60.36 177.93 61.09 176.94 C 62.78 177.34 62.89 180.47 63.52 181.82 C 64.88 180.16 64.50 177.09 66.94 177.06 C 66.39 179.93 65.71 182.84 64.64 185.56 C 62.49 186.51 62.56 182.37 61.75 181.11 C 60.37 182.45 60.33 184.77 59.00 186.27 C 56.94 183.94 56.55 180.00 55.98 177.02 Z" fill="#28343f" />
<path d="M 68.19 177.28 C 69.90 177.21 71.79 177.01 73.46 177.46 C 75.72 179.26 74.85 183.21 74.91 185.76 L 73.11 185.79 C 73.00 183.55 72.94 181.31 72.84 179.07 C 71.95 179.07 71.05 179.07 70.16 179.07 C 70.05 181.29 69.96 183.51 69.85 185.73 L 68.15 185.72 C 68.00 182.95 67.83 180.03 68.19 177.28 Z" fill="#32404c" />
<path d="M 80.03 177.10 C 82.80 177.32 83.67 179.29 83.87 181.79 C 81.93 181.96 79.99 182.09 78.05 182.27 C 79.16 184.94 81.87 183.13 83.35 184.97 C 81.94 185.52 80.88 186.32 79.31 185.83 C 75.17 184.95 75.57 177.08 80.03 177.10 Z" fill="#2a343e" />
<path d="M 89.27 177.20 C 88.38 178.95 87.00 180.13 86.97 182.03 C 86.45 183.85 87.71 185.93 85.05 185.88 C 84.90 183.23 84.89 180.57 85.08 177.91 C 86.47 177.62 87.86 177.39 89.27 177.20 Z" fill="#24313c" />
<path d="M 91.15 177.27 C 92.77 177.02 93.33 179.12 91.81 179.73 C 90.08 180.03 89.43 177.87 91.15 177.27 Z" fill="#495762" />
<path d="M 78.41 179.10 C 79.51 179.06 80.61 179.04 81.71 179.01 L 81.75 180.93 C 80.61 180.92 79.46 180.91 78.32 180.90 L 78.41 179.10 Z" fill="#a1aeb6" />
<path d="M 90.29 184.05 C 92.07 182.83 93.26 185.66 91.14 186.05 C 90.02 185.72 89.73 185.06 90.29 184.05 Z" fill="#3f4b54" />
<path d="M 43.24 219.40 C 152.64 219.43 263.35 219.32 372.57 219.44 C 372.69 242.26 372.52 265.08 372.69 287.90 C 369.13 288.36 365.58 288.25 362.00 288.23 C 281.00 288.46 200.00 288.16 119.00 288.35 C 100.00 288.25 81.00 288.12 62.00 288.32 C 55.70 288.11 49.37 288.47 43.08 288.00 C 42.67 282.64 43.02 277.37 42.98 272.00 C 43.16 260.97 42.35 250.01 43.01 239.00 C 43.40 232.48 42.54 225.87 43.24 219.40 Z" fill="#a7cfe9" />
<path d="M 103.00 240.96 C 100.43 241.24 99.63 239.36 97.76 238.07 C 95.88 237.74 94.92 238.72 94.38 240.42 C 93.87 242.72 93.72 245.95 95.35 247.85 C 98.07 248.92 99.02 246.84 101.16 245.68 C 102.84 245.45 103.36 246.12 102.74 247.68 C 100.71 252.19 93.42 252.05 91.43 247.55 C 90.06 244.16 90.21 238.81 93.30 236.33 C 96.94 233.55 103.61 235.82 103.00 240.96 Z" fill="#131f29" />
<path d="M 109.35 235.36 C 110.12 235.32 110.89 235.30 111.66 235.31 C 114.15 240.26 116.03 245.75 117.74 251.02 C 116.68 250.91 115.63 250.79 114.57 250.67 C 113.98 249.72 113.38 248.77 112.78 247.81 C 111.53 247.71 110.28 247.59 109.03 247.48 C 108.22 248.59 107.37 249.70 106.58 250.82 C 105.69 250.85 104.80 250.87 103.92 250.88 C 104.30 247.56 105.66 244.84 106.68 241.69 C 107.45 239.60 108.07 237.20 109.35 235.36 Z" fill="#101c26" />
<path d="M 119.27 235.43 C 122.61 235.48 128.07 234.55 130.17 237.85 C 131.88 240.58 129.66 242.64 128.36 244.91 C 129.35 246.85 130.28 248.80 130.92 250.89 C 129.77 250.82 128.62 250.73 127.47 250.65 C 126.52 248.84 125.58 247.03 124.67 245.21 C 123.94 245.22 123.22 245.23 122.50 245.25 C 122.34 247.13 122.18 249.00 122.00 250.87 C 121.05 250.86 120.10 250.86 119.15 250.85 C 118.88 245.75 118.66 240.51 119.27 235.43 Z" fill="#121e28" />
<path d="M 133.23 235.38 C 136.14 235.38 140.80 234.69 142.99 237.01 C 145.11 238.88 142.67 241.85 143.76 244.37 C 144.39 246.50 144.80 248.28 142.80 249.82 C 140.23 251.45 136.10 250.76 133.17 250.80 C 132.97 245.69 132.72 240.48 133.23 235.38 Z" fill="#111d27" />
<path d="M 150.52 235.54 C 153.65 234.50 157.67 236.03 158.71 239.30 C 159.48 242.04 159.63 245.60 158.09 248.11 C 155.91 251.51 150.73 252.03 148.02 248.96 C 144.70 245.22 145.41 237.44 150.52 235.54 Z" fill="#0f1b25" />
<path d="M 162.22 235.31 C 163.02 235.31 163.83 235.34 164.64 235.39 C 167.14 237.89 167.98 242.11 170.77 244.12 C 170.85 241.15 170.84 238.20 171.13 235.25 C 172.03 235.26 172.93 235.27 173.82 235.28 C 174.32 240.45 174.31 245.73 173.90 250.91 C 173.00 250.91 172.09 250.90 171.19 250.89 C 168.81 248.07 167.72 244.47 165.16 241.84 C 165.07 244.86 165.12 247.87 164.93 250.89 C 163.95 250.89 162.96 250.89 161.98 250.90 C 161.78 245.79 161.38 240.36 162.22 235.31 Z" fill="#15212b" />
<path d="M 182.39 235.31 C 183.79 235.27 185.17 235.33 186.58 235.39 C 188.13 238.79 188.96 242.38 190.20 245.89 C 192.21 242.75 192.29 238.56 194.28 235.27 C 195.49 235.27 196.69 235.26 197.89 235.24 C 198.64 240.34 198.46 245.72 198.01 250.85 C 197.04 250.84 196.08 250.84 195.12 250.83 C 194.73 247.51 195.19 244.29 195.43 240.99 C 193.29 243.61 193.16 247.64 191.58 250.68 C 190.83 250.71 190.09 250.74 189.34 250.78 C 187.93 247.52 187.34 243.89 185.41 241.00 C 185.44 244.26 185.70 247.50 185.65 250.76 C 184.56 250.76 183.47 250.75 182.38 250.74 C 182.38 245.60 182.20 240.44 182.39 235.31 Z" fill="#0f1a24" />
<path d="M 205.44 235.42 C 209.12 234.44 212.66 236.67 213.63 240.26 C 214.13 243.59 214.17 247.00 211.43 249.40 C 208.21 252.34 202.53 251.01 201.18 246.78 C 200.18 242.63 200.39 236.68 205.44 235.42 Z" fill="#0f1a24" />
<path d="M 216.40 235.34 C 217.45 235.32 218.52 235.34 219.58 235.40 C 221.93 238.48 222.96 242.10 225.65 244.96 C 225.66 241.96 225.31 238.78 225.84 235.83 C 226.92 235.46 227.95 235.45 228.92 235.80 C 228.94 240.86 229.03 245.87 228.78 250.93 C 227.68 250.82 226.58 250.71 225.47 250.60 C 223.43 247.81 222.26 244.27 219.80 241.85 C 219.56 244.82 219.64 247.76 219.62 250.74 C 218.54 250.75 217.45 250.76 216.36 250.76 C 216.27 245.64 216.02 240.45 216.40 235.34 Z" fill="#0e1821" />
<path d="M 235.52 235.51 C 238.75 234.48 242.59 235.80 243.98 239.03 C 245.52 242.63 244.90 248.11 241.25 250.25 C 237.16 252.50 231.58 249.55 231.31 244.87 C 230.92 241.07 231.66 237.17 235.52 235.51 Z" fill="#0d1923" />
<path d="M 246.37 235.12 C 247.42 235.20 248.46 235.32 249.49 235.47 C 250.58 236.96 251.60 238.50 252.72 239.96 C 253.64 238.45 254.56 236.93 255.49 235.43 C 256.63 235.33 257.77 235.24 258.91 235.15 C 258.04 238.07 256.38 240.26 254.93 243.00 C 256.22 245.75 258.13 248.13 258.98 251.00 C 257.80 251.00 256.66 250.84 255.57 250.54 C 254.55 249.11 253.69 247.57 252.76 246.08 C 251.66 247.59 250.64 249.16 249.64 250.74 C 248.48 250.76 247.31 250.78 246.15 250.80 C 247.27 248.08 248.77 245.61 250.08 242.98 C 248.91 240.33 247.48 237.80 246.37 235.12 Z" fill="#19252f" />
<path d="M 261.31 235.48 C 262.47 235.34 263.62 235.23 264.78 235.15 C 264.45 240.41 264.39 245.70 264.77 250.95 C 263.57 250.90 262.38 250.85 261.18 250.79 C 261.11 245.71 260.87 240.54 261.31 235.48 Z" fill="#0c1720" />
<path d="M 264.78 235.15 C 268.01 235.12 272.23 234.05 275.17 235.61 C 272.66 235.40 270.22 235.43 267.72 235.70 C 267.34 240.78 267.42 245.91 267.77 250.99 C 266.77 250.99 265.77 250.98 264.77 250.95 C 264.39 245.70 264.45 240.41 264.78 235.15 Z" fill="#bbe6fe" />
<path d="M 282.35 235.45 C 285.80 235.30 289.26 235.40 292.71 235.40 C 292.74 236.23 292.78 237.06 292.82 237.89 C 290.50 238.08 288.19 238.20 285.87 238.21 C 285.66 239.15 285.64 240.12 285.80 241.13 C 288.01 241.70 291.75 240.43 291.81 243.75 C 289.87 243.97 287.92 244.13 285.96 244.25 C 285.56 245.44 285.51 246.66 285.83 247.92 C 288.16 248.01 290.49 248.12 292.82 248.24 C 292.82 249.08 292.81 249.92 292.81 250.76 C 289.28 250.90 285.76 250.85 282.23 250.70 C 282.18 245.63 282.12 240.52 282.35 235.45 Z" fill="#0b161f" />
<path d="M 300.44 235.43 C 301.52 235.37 302.61 235.35 303.69 235.35 C 304.06 239.52 303.81 243.69 304.10 247.86 C 306.06 247.97 308.04 248.03 309.99 248.24 C 311.28 250.25 310.07 251.10 307.99 250.87 C 305.46 250.95 302.93 250.85 300.40 250.72 C 300.42 245.63 300.25 240.51 300.44 235.43 Z" fill="#0b161f" />
<path d="M 322.81 235.38 C 322.86 236.24 322.91 237.09 322.96 237.95 C 320.63 238.09 318.30 238.18 315.97 238.22 C 315.94 239.21 315.92 240.20 315.91 241.19 C 317.86 241.36 319.81 241.46 321.76 241.53 C 321.81 242.30 321.86 243.08 321.92 243.86 C 319.95 244.02 317.97 244.16 316.00 244.28 C 315.93 245.45 315.92 246.63 315.96 247.82 C 318.26 247.96 320.55 248.11 322.85 248.25 C 322.84 249.06 322.84 249.87 322.84 250.68 C 319.35 250.83 315.87 250.89 312.38 250.71 C 312.40 245.72 312.15 240.65 312.67 235.68 C 315.98 235.21 319.45 235.44 322.81 235.38 Z" fill="#09131c" />
<path d="M 332.53 235.37 C 334.46 240.46 336.65 245.65 337.90 250.95 C 334.76 250.95 334.48 250.23 332.79 247.82 C 331.56 247.76 330.34 247.71 329.11 247.67 C 328.28 248.72 327.45 249.77 326.61 250.82 C 325.77 250.83 324.92 250.84 324.08 250.85 C 324.98 246.02 327.33 241.48 328.82 236.80 C 329.32 234.52 330.79 235.52 332.53 235.37 Z" fill="#111d27" />
<path d="M 339.47 235.37 C 340.54 235.31 341.61 235.28 342.69 235.27 C 342.83 237.22 342.96 239.16 343.15 241.10 C 344.95 239.52 346.16 237.49 347.80 235.78 C 349.05 235.30 350.48 235.27 351.80 235.08 C 350.23 237.43 348.42 239.60 346.87 241.96 C 348.54 244.99 350.50 247.74 351.85 250.95 C 350.70 250.86 349.55 250.76 348.39 250.67 C 346.99 248.70 345.89 246.35 344.11 244.76 C 343.00 246.66 342.87 248.70 342.58 250.83 C 341.55 250.81 340.52 250.78 339.49 250.75 C 339.46 245.63 339.31 240.49 339.47 235.37 Z" fill="#0e1923" />
<path d="M 267.72 235.70 C 270.22 235.43 272.66 235.40 275.17 235.61 C 280.07 238.15 281.37 244.55 277.68 248.67 C 275.33 251.38 271.00 250.80 267.77 250.99 C 267.42 245.91 267.34 240.78 267.72 235.70 Z" fill="#121e27" />
<path d="M 122.35 238.25 C 123.47 238.11 124.57 238.11 125.64 238.25 C 127.36 239.19 126.83 240.17 126.97 241.81 C 125.49 242.64 124.02 242.73 122.37 242.77 C 122.33 241.26 122.28 239.76 122.35 238.25 Z" fill="#b1dcf6" />
<path d="M 136.34 238.21 C 138.16 238.04 141.19 237.95 140.56 240.66 C 139.39 242.01 137.95 241.58 136.34 241.78 C 136.31 240.59 136.31 239.40 136.34 238.21 Z" fill="#b7daef" />
<path d="M 151.40 238.20 C 153.68 237.29 155.49 239.08 155.78 241.25 C 156.01 243.41 156.12 245.94 154.49 247.62 C 152.50 248.59 150.46 248.24 149.91 245.85 C 149.48 243.58 149.27 239.72 151.40 238.20 Z" fill="#a7cee7" />
<path d="M 206.28 238.14 C 208.44 237.36 210.14 238.90 210.31 241.05 C 210.47 243.21 210.78 246.57 208.65 247.90 C 206.51 248.56 205.04 247.65 204.36 245.57 C 203.81 243.28 203.71 239.29 206.28 238.14 Z" fill="#a7cfea" />
<path d="M 236.50 238.33 C 238.11 237.72 239.56 238.01 240.58 239.45 C 241.33 241.65 241.41 244.40 240.70 246.61 C 239.63 248.72 236.41 248.65 235.33 246.58 C 234.47 244.07 234.39 240.28 236.50 238.33 Z" fill="#a7cce4" />
<path d="M 271.25 238.13 C 272.87 238.21 274.33 238.17 275.43 239.58 C 276.43 241.31 276.29 243.82 275.83 245.71 C 274.94 247.86 273.26 247.98 271.20 248.03 C 271.04 244.77 270.91 241.38 271.25 238.13 Z" fill="#aad3ed" />
<path d="M 65.55 240.43 C 67.39 240.98 70.07 241.37 70.15 243.76 C 66.91 243.02 63.64 241.58 60.28 242.35 C 54.97 243.58 50.91 248.52 50.83 254.00 C 50.25 260.83 56.32 266.57 63.00 266.47 C 68.94 266.66 74.48 261.90 74.87 255.92 C 75.30 254.07 74.61 251.61 76.95 251.01 C 77.06 252.67 77.17 254.29 77.02 255.95 C 76.27 262.59 70.81 268.12 64.03 268.44 C 55.87 269.12 48.38 262.32 48.87 254.01 C 48.92 245.49 57.25 238.81 65.55 240.43 Z" fill="#242f38" />
<path d="M 110.16 240.41 C 111.61 240.11 111.69 243.98 112.02 244.92 C 111.03 244.94 110.04 244.96 109.05 244.98 C 109.36 243.42 109.65 241.91 110.16 240.41 Z" fill="#95b4c4" />
<path d="M 330.99 240.57 C 331.89 241.95 332.30 243.44 332.68 245.02 C 331.55 245.03 330.43 245.03 329.31 245.02 C 329.67 243.43 330.03 241.94 330.99 240.57 Z" fill="#98b7c9" />
<path d="M 76.07 241.61 C 77.78 242.35 78.94 243.48 80.11 244.89 C 73.91 250.47 68.30 255.95 62.90 262.32 C 59.83 260.52 57.35 257.44 54.91 254.87 C 55.78 253.72 56.71 252.78 57.86 251.91 C 59.30 253.05 60.73 254.19 62.16 255.34 C 67.01 250.95 70.54 245.43 76.07 241.61 Z" fill="#15212b" />
<path d="M 136.38 244.28 C 138.11 244.24 139.61 243.72 140.86 245.24 C 140.85 246.04 140.77 246.83 140.60 247.62 C 139.18 247.75 137.76 247.82 136.33 247.81 C 136.32 246.64 136.33 245.46 136.38 244.28 Z" fill="#b3dcf5" />
<path d="M 91.24 259.09 C 94.97 258.56 99.71 258.35 102.05 261.91 C 103.99 265.02 103.75 270.32 100.71 272.70 C 98.08 274.71 94.34 274.32 91.25 273.95 C 91.23 269.00 91.05 264.03 91.24 259.09 Z" fill="#0b1620" />
<path d="M 105.96 259.00 C 109.39 258.72 112.72 258.74 116.15 259.02 C 116.33 259.90 116.21 260.73 115.79 261.52 C 113.55 261.64 111.31 261.67 109.08 261.88 C 109.11 262.84 109.14 263.81 109.18 264.77 C 111.13 264.89 113.09 265.01 115.04 265.14 C 115.05 265.98 115.05 266.82 115.04 267.65 C 113.02 267.68 111.01 267.76 109.00 267.94 C 109.06 269.14 109.11 270.35 109.18 271.55 C 111.45 271.55 113.82 271.49 116.06 271.83 L 116.06 273.95 C 112.66 274.39 109.31 274.30 105.90 274.07 C 105.62 269.06 105.68 264.01 105.96 259.00 Z" fill="#0f1b24" />
<path d="M 118.02 259.20 C 121.85 258.46 125.98 258.79 129.85 259.13 C 129.77 259.88 129.69 260.64 129.62 261.40 C 128.21 261.65 126.80 261.90 125.40 262.17 C 125.34 266.18 125.65 270.08 125.21 274.08 C 124.17 274.08 123.14 274.07 122.10 274.05 C 121.95 270.07 122.01 266.09 121.82 262.12 C 119.91 261.59 118.27 261.93 117.23 259.92 L 118.02 259.20 Z" fill="#111c26" />
<path d="M 132.02 259.02 C 135.38 258.73 138.63 258.72 141.99 259.05 C 141.94 259.89 141.88 260.73 141.82 261.57 C 139.58 261.53 137.37 261.61 135.15 261.89 C 135.16 262.83 135.18 263.77 135.20 264.72 C 137.17 264.84 139.15 264.94 141.12 265.07 C 141.06 265.90 140.99 266.74 140.91 267.57 C 139.00 267.65 137.11 267.77 135.21 267.96 C 135.20 269.01 135.19 270.06 135.17 271.10 C 137.37 271.42 139.56 271.51 141.77 271.49 C 141.86 272.32 141.93 273.15 142.01 273.98 C 138.62 274.32 135.33 274.36 131.94 274.03 C 131.72 269.03 131.81 264.02 132.02 259.02 Z" fill="#0c1721" />
<path d="M 156.04 263.97 C 152.84 264.75 152.33 260.72 149.40 261.33 C 146.39 262.56 146.19 269.66 148.80 271.28 C 151.82 273.26 152.67 267.73 155.97 269.09 C 156.32 269.88 156.24 270.71 155.71 271.59 C 153.49 275.26 147.54 275.41 145.12 271.88 C 143.20 269.17 143.21 264.54 144.63 261.62 C 147.06 256.90 156.62 257.78 156.04 263.97 Z" fill="#131f29" />
<path d="M 156.99 259.06 C 161.25 258.67 165.51 258.69 169.75 259.21 C 169.57 259.86 169.39 260.52 169.23 261.18 C 167.88 261.49 166.53 261.78 165.18 262.09 C 164.83 266.10 164.99 270.08 164.91 274.10 C 163.88 274.11 162.86 274.12 161.83 274.12 C 161.43 270.12 161.68 266.17 161.64 262.16 C 160.23 261.90 158.81 261.66 157.40 261.37 C 157.26 260.60 157.12 259.83 156.99 259.06 Z" fill="#101b25" />
<path d="M 172.02 258.96 C 172.96 258.97 173.90 258.99 174.85 259.01 C 175.03 264.05 175.21 269.06 174.96 274.10 C 173.92 274.11 172.88 274.12 171.84 274.13 C 171.50 269.06 171.61 264.01 172.02 258.96 Z" fill="#101c26" />
<path d="M 181.32 259.23 C 184.36 257.97 188.49 258.84 189.96 262.04 C 191.45 265.47 191.29 270.59 188.17 273.13 C 184.86 275.39 179.99 274.50 178.34 270.62 C 176.98 267.01 177.25 261.06 181.32 259.23 Z" fill="#141f29" />
<path d="M 193.26 259.08 C 194.43 259.03 196.43 258.61 197.10 259.89 C 199.04 262.38 199.84 265.16 202.08 267.22 C 202.24 264.47 202.21 261.74 202.23 258.99 C 203.41 258.91 204.57 258.92 205.72 259.02 C 205.74 264.01 205.69 269.00 205.73 273.99 C 204.50 273.90 202.53 274.54 201.87 273.16 C 200.07 270.85 199.11 267.56 196.79 265.78 C 196.54 268.46 196.53 271.15 196.55 273.84 C 195.42 273.91 194.30 273.97 193.17 274.03 C 193.11 269.06 192.97 264.05 193.26 259.08 Z" fill="#111c26" />
<path d="M 219.97 263.11 C 217.71 263.34 215.98 262.30 213.91 261.65 C 212.44 261.55 211.81 262.27 212.01 263.82 C 214.45 265.37 219.58 265.69 219.90 269.16 C 220.84 275.98 207.43 276.11 208.22 269.22 C 211.13 268.88 214.48 273.68 216.37 270.08 C 215.73 267.44 209.97 267.65 208.94 264.79 C 208.22 263.24 208.58 261.06 209.98 260.01 C 213.39 257.68 219.16 258.30 219.97 263.11 Z" fill="#0f1a24" />
<path d="M 183.41 261.35 C 185.47 260.82 186.78 262.10 187.12 264.06 C 187.48 266.61 187.64 269.71 185.49 271.56 C 183.24 272.20 181.72 270.89 181.21 268.75 C 180.75 266.12 180.72 262.80 183.41 261.35 Z" fill="#a7d0e9" />
<path d="M 94.85 261.70 C 101.65 260.18 101.52 272.52 95.08 271.87 C 94.28 268.50 94.43 265.11 94.85 261.70 Z" fill="#a6cfea" />
<path d="M 0.00 326.48 C 0.64 327.04 1.28 327.61 1.90 328.19 C 1.96 346.86 2.11 365.53 1.91 384.20 C 1.27 383.61 0.64 383.03 0.00 382.44 L 0.00 326.48 Z" fill="#afaf8b" />
<path d="M 105.93 328.42 C 106.30 329.71 106.45 331.10 106.64 332.43 C 108.34 332.81 110.79 332.62 111.87 334.15 C 113.55 336.53 113.32 340.39 110.77 342.10 C 108.71 342.65 106.41 342.48 104.28 342.56 C 104.28 338.72 104.24 334.88 104.29 331.04 C 104.20 330.26 104.69 327.23 105.93 328.42 Z" fill="#2d363f" />
<path d="M 358.14 328.29 L 359.85 328.27 C 360.14 333.00 360.24 337.86 359.80 342.57 L 358.13 342.73 C 357.85 337.95 357.79 333.07 358.14 328.29 Z" fill="#1e2a33" />
<path d="M 421.75 327.81 C 421.56 383.87 421.99 439.98 422.07 496.04 C 422.19 501.94 418.32 505.53 413.42 508.00 L 9.14 508.00 C 6.68 506.79 4.41 505.59 2.71 503.37 L 3.63 502.06 C 5.50 503.54 7.69 505.53 10.14 505.81 C 14.05 506.25 18.06 505.94 22.00 506.00 C 151.01 506.02 280.04 505.98 409.05 506.02 C 412.85 506.16 416.40 504.79 418.55 501.56 C 420.68 498.73 420.03 494.37 420.15 491.00 C 420.20 443.79 420.34 396.50 420.51 349.29 C 422.34 342.37 420.41 334.91 421.75 327.81 Z" fill="#666666" />
<path d="M 55.06 328.19 C 56.28 329.31 56.11 331.25 56.39 332.79 C 58.34 333.05 60.72 332.25 61.85 334.28 C 62.30 337.04 62.09 339.98 61.93 342.76 L 60.13 342.75 C 60.04 339.91 60.04 337.09 59.68 334.28 C 58.10 334.05 57.48 334.21 56.38 335.38 C 56.05 337.84 56.10 340.35 55.92 342.83 L 54.35 342.55 C 54.13 339.37 54.27 336.17 54.16 332.99 C 54.27 331.46 53.76 329.27 55.06 328.19 Z" fill="#2a3640" />
<path d="M 196.23 329.24 C 198.03 328.02 199.16 330.81 197.03 331.21 C 195.89 330.92 195.62 330.27 196.23 329.24 Z" fill="#222d37" />
<path d="M 208.19 328.70 C 208.78 333.20 208.63 337.65 208.23 342.16 C 206.22 342.10 203.11 343.08 201.47 341.64 C 199.48 339.48 199.64 335.62 201.57 333.48 C 202.86 332.61 204.82 332.82 206.33 332.52 C 206.83 331.23 206.25 328.54 208.19 328.70 Z" fill="#1d252d" />
<path d="M 286.25 329.25 C 288.05 328.04 289.20 330.82 287.06 331.22 C 285.91 330.93 285.64 330.27 286.25 329.25 Z" fill="#25313c" />
<path d="M 42.86 329.77 C 46.27 329.44 49.67 329.37 53.08 329.75 C 53.31 331.53 50.27 330.98 49.13 331.39 C 48.76 335.14 48.93 338.87 48.79 342.63 L 47.11 342.69 C 46.81 338.93 46.98 335.18 46.78 331.42 C 45.64 331.00 42.84 331.42 42.86 329.77 Z" fill="#19232c" />
<path d="M 117.46 332.50 C 120.77 331.77 123.58 334.67 123.16 337.98 C 123.38 341.39 119.74 343.83 116.70 342.36 C 112.69 340.40 113.27 333.93 117.46 332.50 Z" fill="#242f38" />
<path d="M 179.40 332.44 C 182.61 331.71 185.30 334.89 184.98 337.94 C 184.84 340.91 182.31 343.41 179.26 342.74 C 174.51 341.72 174.63 333.39 179.40 332.44 Z" fill="#252f38" />
<path d="M 330.43 332.59 C 331.21 334.13 328.55 334.86 327.92 336.13 C 327.72 338.33 327.74 340.55 327.68 342.75 L 325.96 342.64 C 325.26 339.70 325.27 335.98 325.99 333.05 C 327.45 332.82 328.96 332.52 330.43 332.59 Z" fill="#303a44" />
<path d="M 68.02 332.62 C 71.30 332.33 72.85 335.10 72.29 338.05 C 70.22 338.15 68.15 338.25 66.07 338.37 C 66.53 342.15 69.59 340.45 72.10 340.30 C 71.74 343.14 67.97 343.33 66.02 342.04 C 62.38 339.63 63.54 333.24 68.02 332.62 Z" fill="#1e2730" />
<path d="M 82.05 332.61 C 84.79 332.38 86.20 333.69 86.95 336.20 C 84.77 335.69 82.14 332.52 80.51 335.52 C 80.11 337.28 79.96 339.41 81.37 340.78 C 82.87 341.35 84.88 339.64 86.29 339.15 C 86.52 342.45 82.47 343.81 80.18 341.86 C 76.96 339.59 77.64 332.99 82.05 332.61 Z" fill="#212a32" />
<path d="M 95.80 335.26 C 96.20 337.65 96.03 340.19 95.97 342.60 C 93.86 342.56 91.66 342.83 89.58 342.48 C 87.71 341.73 87.82 339.98 88.08 338.29 C 89.54 336.54 92.48 336.77 93.98 335.20 C 93.35 334.85 92.73 334.51 92.10 334.16 C 90.80 334.81 89.49 335.43 88.14 335.98 C 87.83 331.97 95.30 331.36 95.80 335.26 Z" fill="#26313b" />
<path d="M 98.15 332.99 C 99.81 332.88 101.47 332.79 103.13 332.78 C 102.45 334.21 101.17 334.98 100.19 336.26 C 99.97 338.43 100.00 340.62 99.89 342.79 L 98.23 342.56 C 97.83 339.42 98.05 336.15 98.15 332.99 Z" fill="#24303b" />
<path d="M 125.06 332.98 C 127.52 333.00 131.28 331.58 132.66 334.41 C 133.11 337.09 133.06 339.92 132.78 342.62 L 131.06 342.82 C 130.89 340.32 130.95 337.80 130.71 335.30 C 129.58 333.47 128.48 333.83 127.24 335.30 C 126.93 337.73 126.96 340.21 126.81 342.66 L 125.10 342.69 C 124.83 339.45 124.89 336.22 125.06 332.98 Z" fill="#202c36" />
<path d="M 140.01 332.92 C 142.85 332.66 145.65 332.99 148.49 332.96 C 149.78 332.98 151.40 332.68 152.56 333.31 C 154.20 335.84 153.56 339.83 153.72 342.74 L 151.95 342.65 C 151.43 340.36 151.67 337.81 151.38 335.47 C 150.72 333.60 149.27 334.11 148.16 335.26 C 147.75 337.68 147.79 340.19 147.68 342.64 L 145.99 342.72 C 145.76 340.30 145.76 337.86 145.46 335.45 C 145.06 334.31 143.54 333.44 142.68 334.63 C 141.09 336.68 142.83 340.84 140.95 342.92 C 138.97 340.64 140.15 335.81 140.01 332.92 Z" fill="#27313a" />
<path d="M 157.35 333.18 C 160.00 331.76 163.95 332.73 164.36 336.07 C 165.03 339.60 163.22 343.18 159.24 342.74 C 154.74 341.78 153.66 335.81 157.35 333.18 Z" fill="#2d3841" />
<path d="M 166.13 333.02 C 168.82 332.79 171.12 332.03 173.70 333.27 C 174.29 336.41 174.12 339.53 173.87 342.69 L 172.20 342.65 C 172.10 339.82 172.01 336.99 171.73 334.18 C 170.93 334.17 170.14 334.19 169.34 334.24 C 166.96 336.09 169.23 340.84 167.03 342.91 C 165.36 340.31 166.33 336.04 166.13 333.02 Z" fill="#1b2630" />
<path d="M 186.72 332.90 C 187.86 333.47 188.94 334.14 190.03 334.81 C 191.23 333.95 192.46 333.18 193.81 332.57 C 193.16 334.08 192.40 335.54 191.79 337.07 C 192.34 339.07 193.52 340.83 194.05 342.85 C 191.75 342.65 191.26 340.77 189.99 339.18 C 188.75 340.74 188.11 342.40 185.99 342.88 C 186.46 340.98 187.56 339.47 188.44 337.76 C 188.20 336.10 187.21 334.51 186.72 332.90 Z" fill="#253038" />
<path d="M 196.14 333.10 L 197.98 332.91 C 197.86 335.82 198.96 340.53 197.01 342.86 C 195.12 340.65 196.17 335.90 196.14 333.10 Z" fill="#131d26" />
<path d="M 214.04 332.59 C 217.35 332.28 219.19 334.80 219.08 337.89 C 216.99 338.22 214.08 337.74 212.31 338.98 C 213.75 342.23 216.42 340.27 219.05 340.17 C 217.59 342.58 215.47 343.54 212.82 342.22 C 208.88 340.26 209.37 333.19 214.04 332.59 Z" fill="#212b33" />
<path d="M 232.85 335.81 C 230.92 335.41 228.59 333.31 226.92 335.12 C 228.59 336.60 231.00 337.27 233.00 338.26 C 233.01 339.10 233.00 339.93 232.95 340.76 C 230.84 343.87 225.44 343.35 225.04 339.24 C 226.94 339.94 228.54 340.91 230.63 340.86 L 230.60 339.33 C 228.86 338.38 227.02 337.65 225.32 336.60 C 224.06 331.65 233.06 331.11 232.85 335.81 Z" fill="#303c45" />
<path d="M 239.00 332.52 C 242.12 332.73 243.13 335.11 243.07 337.90 C 241.03 338.24 238.08 337.73 236.39 339.01 C 237.43 341.87 240.04 340.36 242.33 340.40 C 242.74 342.49 238.95 343.12 237.52 342.53 C 232.76 341.01 233.65 332.23 239.00 332.52 Z" fill="#212a33" />
<path d="M 244.90 333.04 C 247.30 332.75 249.52 332.33 251.90 333.11 C 252.69 336.10 252.79 339.12 252.15 342.15 L 250.86 342.32 C 250.66 340.04 250.64 337.74 250.35 335.48 C 249.68 333.81 248.10 333.91 247.08 335.23 C 246.59 337.63 246.72 340.19 246.63 342.64 L 245.02 342.70 C 244.64 339.48 244.67 336.27 244.90 333.04 Z" fill="#1e262f" />
<path d="M 262.05 335.76 C 260.45 335.17 258.86 334.58 257.22 334.13 C 255.98 337.49 262.77 336.47 262.42 339.99 C 261.69 343.57 255.61 343.73 254.75 340.01 C 256.46 340.33 258.16 340.67 259.88 340.90 C 260.57 338.41 256.48 338.11 254.98 336.79 C 253.44 331.72 262.37 331.04 262.05 335.76 Z" fill="#212b34" />
<path d="M 266.33 333.09 C 269.41 331.41 272.90 333.67 272.99 337.07 C 273.29 340.41 270.89 343.47 267.36 342.65 C 263.15 341.54 262.53 335.10 266.33 333.09 Z" fill="#1b252d" />
<path d="M 274.96 332.88 C 276.66 332.81 278.36 332.78 280.06 332.85 C 279.05 333.93 277.74 334.89 277.00 336.18 C 276.76 338.34 276.80 340.54 276.72 342.72 L 275.14 342.55 C 274.53 339.44 274.76 336.03 274.96 332.88 Z" fill="#25303a" />
<path d="M 286.11 333.03 L 288.09 332.96 C 288.31 336.26 288.28 339.49 287.91 342.78 L 286.24 342.58 C 285.86 339.44 286.04 336.19 286.11 333.03 Z" fill="#202d38" />
<path d="M 298.05 335.83 C 296.37 335.55 292.95 332.56 292.78 335.84 C 294.54 336.64 296.30 337.43 298.05 338.26 C 298.19 339.13 298.17 339.96 297.98 340.76 C 295.97 344.14 290.35 343.15 290.07 339.10 C 292.01 339.85 293.66 340.89 295.81 340.94 C 296.74 337.76 291.26 338.74 290.68 335.96 C 290.05 331.57 298.53 331.37 298.05 335.83 Z" fill="#253039" />
<path d="M 305.15 333.05 C 307.34 333.08 311.75 331.68 312.83 334.30 C 312.97 336.64 313.88 341.13 312.01 342.80 C 310.45 340.63 311.32 336.91 310.67 334.28 C 309.90 334.22 309.16 334.27 308.44 334.44 C 305.90 335.88 308.31 341.00 306.02 342.76 C 304.35 340.31 305.37 335.96 305.15 333.05 Z" fill="#1c2731" />
<path d="M 317.30 333.05 C 320.84 331.48 324.32 334.22 324.03 337.97 C 324.28 341.24 320.59 343.63 317.69 342.36 C 313.97 340.92 313.74 334.79 317.30 333.05 Z" fill="#1f2932" />
<path d="M 332.03 332.97 C 334.44 332.70 336.78 332.84 339.19 333.04 C 341.69 333.17 343.99 331.66 345.52 334.49 C 345.65 336.60 346.64 341.38 344.87 342.69 C 342.23 341.60 345.30 334.72 342.02 334.13 C 338.23 334.67 341.12 340.67 338.96 342.80 C 336.74 341.20 338.76 336.63 337.22 334.74 C 335.98 333.46 335.18 334.20 334.22 335.28 C 333.95 337.76 334.01 340.28 333.87 342.78 L 332.25 342.55 C 331.82 339.41 331.97 336.14 332.03 332.97 Z" fill="#1f2933" />
<path d="M 355.50 334.48 C 355.95 337.10 355.79 339.85 355.77 342.49 C 353.01 342.28 348.22 343.98 347.55 340.01 C 347.55 335.85 353.10 337.51 353.81 335.10 C 351.83 333.18 350.01 335.19 347.83 335.71 C 348.36 331.65 353.43 331.79 355.50 334.48 Z" fill="#27323b" />
<path d="M 362.33 333.04 C 364.10 331.80 365.31 334.66 363.18 335.04 C 362.06 334.71 361.78 334.04 362.33 333.04 Z" fill="#2d3a44" />
<path d="M 70.64 336.03 C 69.63 337.26 67.40 336.81 65.96 336.97 C 66.30 333.87 69.25 332.76 70.64 336.03 Z" fill="#b4c3cc" />
<path d="M 108.85 334.04 C 109.89 335.28 110.97 336.19 110.81 337.96 C 110.74 339.98 109.57 341.53 107.40 340.71 C 105.81 339.49 106.47 337.17 106.39 335.40 C 107.18 334.87 108.00 334.42 108.85 334.04 Z" fill="#e5f5fb" />
<path d="M 117.45 334.39 C 121.55 332.51 122.48 340.67 118.89 340.97 C 115.45 341.38 115.49 336.05 117.45 334.39 Z" fill="#d9eaf5" />
<path d="M 159.20 334.21 C 163.07 333.12 163.49 340.75 159.94 340.97 C 156.63 340.37 156.34 335.67 159.20 334.21 Z" fill="#d5e7f3" />
<path d="M 179.38 334.23 C 182.75 333.11 183.73 338.12 182.11 340.13 C 181.11 341.46 178.91 341.28 178.18 339.67 C 177.73 337.81 177.61 335.45 179.38 334.23 Z" fill="#ddf0fa" />
<path d="M 204.80 334.18 C 207.28 335.39 206.59 338.70 205.74 340.75 C 201.01 342.33 200.87 334.14 204.80 334.18 Z" fill="#e7f6fc" />
<path d="M 214.90 333.96 C 216.50 334.43 216.96 335.22 216.86 336.84 C 215.32 336.83 213.78 336.80 212.24 336.75 C 212.23 334.94 213.32 334.37 214.90 333.96 Z" fill="#99aab4" />
<path d="M 240.94 336.83 C 239.66 336.80 238.39 336.76 237.12 336.71 C 236.79 335.98 236.91 335.23 237.48 334.45 C 239.39 333.29 241.29 334.67 240.94 336.83 Z" fill="#c3cfd6" />
<path d="M 267.44 334.34 C 270.89 332.90 271.90 338.35 270.23 340.25 C 269.21 341.56 266.90 341.19 266.23 339.62 C 265.71 337.72 265.81 335.67 267.44 334.34 Z" fill="#dceff9" />
<path d="M 318.42 334.32 C 322.23 332.95 323.29 340.23 319.87 340.92 C 316.31 341.81 315.75 335.46 318.42 334.32 Z" fill="#d3e7f4" />
<path d="M 93.92 338.01 C 93.89 340.72 92.54 341.03 90.15 340.90 C 89.70 337.52 91.42 338.21 93.92 338.01 Z" fill="#cadae3" />
<path d="M 350.19 338.19 C 351.42 338.07 352.66 338.02 353.90 338.04 C 353.83 340.39 352.22 341.04 350.11 340.90 C 349.91 339.95 349.94 339.04 350.19 338.19 Z" fill="#b8c8d1" />
<path d="M 364.24 340.13 C 364.41 342.34 364.81 344.67 361.96 345.04 C 362.48 342.97 360.95 339.64 364.24 340.13 Z" fill="#28333c" />
<path d="M 72.35 352.70 C 71.56 353.50 70.77 354.30 69.98 355.09 C 70.67 355.71 71.36 356.33 72.06 356.95 C 68.38 359.50 71.35 363.02 69.00 365.83 C 67.99 364.23 68.16 361.93 67.84 360.08 C 67.74 358.23 66.94 356.66 67.96 354.98 C 68.91 353.20 70.11 350.94 72.35 352.70 Z" fill="#293743" />
<path d="M 163.97 351.97 C 164.45 356.32 164.29 360.67 163.96 365.03 C 162.21 365.14 159.63 366.16 158.16 364.88 C 155.60 362.90 155.61 359.09 158.01 356.98 C 159.27 355.66 161.06 356.37 162.66 356.39 C 162.92 355.14 162.15 351.97 163.97 351.97 Z" fill="#202a34" />
<path d="M 221.81 352.14 C 221.92 356.45 221.86 360.76 221.88 365.08 C 219.81 365.17 217.27 365.71 215.33 364.88 C 213.41 363.33 213.79 360.44 214.11 358.28 C 215.59 355.58 217.36 356.14 219.93 356.43 C 220.35 354.64 218.90 351.56 221.81 352.14 Z" fill="#2a3640" />
<path d="M 92.75 352.86 L 93.96 352.82 C 94.26 356.88 94.34 360.93 94.04 364.99 L 92.83 365.00 C 92.56 360.93 92.53 356.92 92.75 352.86 Z" fill="#000308" />
<path d="M 98.05 353.48 C 100.16 355.90 99.55 357.17 99.10 360.06 C 98.56 362.32 99.82 363.59 100.81 365.42 C 99.94 365.37 99.08 365.26 98.23 365.12 C 96.80 362.69 97.00 359.00 96.27 356.21 L 96.61 355.59 C 97.07 354.88 97.55 354.17 98.05 353.48 Z" fill="#29343d" />
<path d="M 176.98 353.58 C 177.64 354.43 178.25 355.30 178.81 356.20 C 178.91 358.09 177.37 360.64 178.18 362.63 C 178.70 363.57 179.25 364.50 179.82 365.41 C 178.69 365.32 177.55 365.13 176.41 364.84 C 176.14 361.94 175.70 359.08 175.23 356.21 L 175.59 355.61 C 176.04 354.93 176.50 354.25 176.98 353.58 Z" fill="#26323d" />
<path d="M 200.98 353.59 C 201.61 354.45 202.21 355.32 202.79 356.20 C 202.13 359.76 201.01 362.09 203.66 365.19 C 202.89 365.36 202.11 365.53 201.34 365.69 C 199.38 363.34 199.99 359.14 199.16 356.19 C 199.74 355.31 200.34 354.44 200.98 353.59 Z" fill="#303d48" />
<path d="M 44.15 356.51 C 46.17 356.38 49.46 355.43 50.88 357.24 C 51.51 359.85 51.32 362.66 51.12 365.31 L 49.86 365.08 C 49.56 362.81 49.61 360.46 49.58 358.18 C 48.50 357.89 47.36 357.84 46.17 358.03 C 45.79 360.41 46.45 363.79 45.01 365.78 C 43.19 363.71 44.11 359.18 44.15 356.51 Z" fill="#212c36" />
<path d="M 55.44 356.27 C 58.18 355.14 61.21 357.05 61.31 360.03 C 61.75 363.17 59.80 366.29 56.37 365.62 C 52.13 364.71 51.72 358.11 55.44 356.27 Z" fill="#28343e" />
<path d="M 79.91 357.26 C 80.64 359.86 80.52 362.42 80.16 365.06 C 77.89 365.10 75.21 366.65 73.61 364.37 C 72.24 362.83 73.35 360.52 75.29 360.22 C 76.87 359.52 78.74 360.30 78.69 358.01 C 76.89 357.85 75.21 358.26 73.47 358.64 C 74.31 355.46 77.76 355.25 79.91 357.26 Z" fill="#24303a" />
<path d="M 82.98 356.20 L 84.61 356.31 C 84.65 358.88 84.67 361.43 85.07 363.98 C 85.95 363.95 86.81 363.89 87.68 363.80 C 89.38 362.29 87.40 356.10 90.06 355.93 C 90.40 359.01 90.36 362.06 90.10 365.14 C 87.72 365.34 85.51 365.70 83.19 364.85 C 82.68 361.97 82.52 359.10 82.98 356.20 Z" fill="#1f2830" />
<path d="M 109.14 358.84 C 107.44 358.54 105.74 358.20 104.02 357.98 C 104.73 360.75 110.18 360.15 108.94 363.78 C 106.86 366.82 103.50 366.02 101.87 363.00 C 103.42 363.07 106.46 364.71 107.49 363.04 C 105.97 361.68 102.85 360.83 102.06 358.96 C 102.86 355.03 108.19 354.95 109.14 358.84 Z" fill="#2e3b45" />
<path d="M 114.90 356.06 C 117.34 355.59 117.01 360.40 117.52 361.88 C 119.02 360.08 119.21 357.22 120.97 355.80 C 122.05 357.72 122.32 360.09 123.63 361.84 C 124.30 360.36 124.29 356.18 126.26 356.00 C 126.11 358.10 125.81 360.17 125.21 362.19 C 124.78 363.30 124.55 365.25 123.07 365.34 C 122.30 363.52 121.55 361.69 120.73 359.88 C 119.83 361.80 119.09 363.77 118.05 365.61 C 115.83 363.31 115.42 359.11 114.90 356.06 Z" fill="#2c3842" />
<path d="M 131.98 355.96 C 134.79 356.12 135.68 358.38 135.93 360.83 C 133.96 361.07 131.99 361.23 130.01 361.37 C 130.11 362.19 130.20 363.01 130.29 363.82 C 131.97 363.81 133.62 363.64 135.28 363.42 C 134.92 365.85 132.00 365.74 130.18 365.15 C 126.07 363.48 127.23 355.76 131.98 355.96 Z" fill="#26323b" />
<path d="M 137.39 356.30 C 138.92 356.12 140.45 356.07 141.99 356.03 C 142.23 357.28 140.43 357.93 139.70 358.76 C 138.70 360.73 139.85 364.33 138.03 365.70 C 136.63 363.07 137.36 359.22 137.39 356.30 Z" fill="#394550" />
<path d="M 146.97 355.95 C 149.92 356.07 150.69 358.47 151.02 360.97 C 149.02 361.18 147.02 361.30 145.01 361.37 C 144.16 365.37 148.23 363.39 150.41 363.41 C 149.68 365.60 147.60 366.27 145.54 365.51 C 141.25 364.01 142.00 355.64 146.97 355.95 Z" fill="#28333d" />
<path d="M 170.03 355.88 C 172.98 355.71 174.32 358.35 174.12 360.99 C 172.10 361.12 170.08 361.23 168.06 361.33 C 167.97 365.31 171.52 363.40 173.95 363.42 C 173.06 365.83 170.14 366.25 168.15 364.92 C 164.75 362.67 165.42 356.06 170.03 355.88 Z" fill="#232f38" />
<path d="M 184.99 355.96 C 187.89 356.03 188.66 358.53 189.02 360.93 C 187.02 361.10 185.01 361.21 183.01 361.31 C 183.13 362.13 183.26 362.94 183.38 363.75 C 185.04 363.79 186.68 363.65 188.32 363.47 C 187.56 365.89 185.05 366.18 183.06 365.04 C 179.29 363.15 180.49 355.89 184.99 355.96 Z" fill="#2d3944" />
<path d="M 194.02 355.95 C 196.40 355.79 197.10 357.46 198.07 359.24 C 195.98 358.67 194.46 357.43 192.25 358.23 C 192.04 360.47 191.39 362.29 193.20 364.09 C 194.80 363.53 196.35 362.89 197.92 362.26 C 197.49 365.79 193.03 366.44 190.98 364.02 C 188.92 361.23 190.00 356.02 194.02 355.95 Z" fill="#333f48" />
<path d="M 209.81 356.00 C 212.22 356.66 212.31 358.87 212.83 360.90 C 210.89 361.10 208.94 361.22 206.99 361.31 C 207.00 362.13 207.13 362.93 207.38 363.74 C 209.01 363.77 210.65 363.73 212.28 363.68 C 210.65 367.01 205.97 366.03 204.88 362.84 C 203.70 359.56 205.90 355.14 209.81 356.00 Z" fill="#2a353e" />
<path d="M 162.56 358.42 C 162.74 360.44 163.09 362.21 161.80 363.97 C 160.94 363.97 160.08 363.96 159.22 363.95 C 157.87 361.93 157.46 359.31 159.68 357.73 C 160.22 356.79 161.83 358.23 162.56 358.42 Z" fill="#e1f3fa" />
<path d="M 170.00 357.41 C 171.63 357.47 171.95 358.44 172.00 359.91 C 170.66 359.94 169.31 359.95 167.97 359.95 C 168.18 358.69 168.48 357.42 170.00 357.41 Z" fill="#b7c3cc" />
<path d="M 208.89 357.42 C 210.37 357.89 210.59 358.41 210.89 359.89 C 209.60 359.91 208.30 359.92 207.01 359.90 C 206.35 359.20 208.09 356.65 208.89 357.42 Z" fill="#bdcbd4" />
<path d="M 55.36 358.33 L 57.05 357.72 C 60.55 357.30 60.64 364.53 57.09 364.03 C 54.32 363.94 54.72 360.17 55.36 358.33 Z" fill="#ddeff8" />
<path d="M 133.91 359.99 C 132.60 359.99 131.29 359.97 129.99 359.94 C 129.03 356.91 134.26 356.90 133.91 359.99 Z" fill="#ccdbe2" />
<path d="M 148.93 359.95 C 147.59 359.94 146.26 359.93 144.92 359.93 C 144.42 356.80 149.39 356.99 148.93 359.95 Z" fill="#c5d3dc" />
<path d="M 186.96 359.94 C 185.62 359.94 184.29 359.94 182.95 359.94 C 182.42 356.91 187.59 356.83 186.96 359.94 Z" fill="#cdd9e1" />
<path d="M 216.26 358.23 C 217.32 357.58 218.49 357.57 219.78 358.20 C 219.94 359.68 220.10 361.25 219.87 362.72 C 218.84 364.22 218.08 364.32 216.49 363.51 C 215.51 361.80 215.80 360.04 216.26 358.23 Z" fill="#dceef8" />
<path d="M 78.83 361.03 C 78.74 363.92 77.62 364.07 75.04 363.99 C 75.09 363.09 75.21 362.21 75.39 361.35 C 76.53 361.21 77.68 361.11 78.83 361.03 Z" fill="#cddbe3" />
<path d="M 224.32 363.99 L 225.05 363.56 L 225.79 363.97 L 225.79 364.80 L 225.05 365.22 L 224.33 364.82 L 224.32 363.99 Z" fill="#162028" />
<path d="M 0.00 382.44 C 0.64 383.03 1.27 383.61 1.91 384.20 C 2.01 402.16 2.06 420.12 1.94 438.08 L 0.00 437.67 L 0.00 382.44 Z" fill="#95957e" />
<path d="M 320.00 422.93 C 320.16 424.54 320.16 425.79 319.11 427.11 C 316.70 430.52 313.48 432.82 309.98 434.99 C 307.60 436.25 306.91 438.63 306.29 441.07 C 306.10 442.19 307.51 443.34 307.99 444.30 C 307.00 444.20 306.02 444.10 305.04 443.99 C 304.45 441.45 305.28 439.25 305.79 436.80 C 303.51 438.99 301.63 441.53 299.44 443.80 C 298.61 444.50 297.76 445.16 296.92 445.85 C 320.89 446.25 344.89 445.76 368.86 446.06 L 368.89 447.04 C 364.24 447.49 359.66 447.35 355.00 447.39 C 336.31 447.37 317.64 447.48 298.96 447.26 C 293.92 447.70 289.09 447.52 284.06 447.17 L 284.03 446.13 C 287.24 446.01 290.56 446.28 293.74 445.81 C 301.00 441.83 306.10 433.82 308.17 425.96 C 305.14 427.18 306.07 430.49 303.89 432.01 C 303.68 430.05 303.41 428.41 304.70 426.74 C 306.03 425.13 307.50 423.03 309.85 424.12 C 310.79 427.79 307.11 431.63 306.13 435.17 C 309.07 432.72 310.26 428.77 313.18 426.18 C 314.97 424.58 317.32 421.45 320.00 422.93 Z" fill="#35424c" />
<path d="M 318.97 423.87 C 317.84 427.36 314.41 430.81 311.01 432.06 C 312.45 428.70 315.46 425.15 318.97 423.87 Z" fill="#d6e7ee" />
<path d="M 311.01 432.06 L 310.75 432.33 L 311.01 432.06 Z" fill="#cbe4f4" />
<path d="M 320.64 432.85 C 320.49 434.13 320.34 435.42 320.19 436.71 C 321.77 435.35 323.38 434.03 325.03 432.77 C 325.73 433.99 326.44 435.21 327.11 436.46 C 329.97 435.58 332.96 434.15 335.96 433.99 C 338.69 434.27 341.29 436.16 343.85 437.10 C 347.25 438.61 351.49 438.00 355.15 438.10 L 354.81 438.94 C 349.80 441.54 343.20 438.75 338.57 436.43 C 334.56 434.42 330.25 437.57 326.17 438.14 C 325.58 437.25 325.00 436.36 324.42 435.46 C 322.34 436.90 320.51 438.55 318.29 439.79 C 318.05 438.87 317.82 437.96 317.58 437.04 C 314.25 438.73 312.87 441.92 308.98 442.27 C 311.06 439.91 313.59 438.04 315.77 435.78 C 317.32 434.42 318.35 432.71 320.64 432.85 Z" fill="#313e48" />
<path d="M 85.84 433.93 C 86.85 433.79 87.86 433.65 88.88 433.51 C 85.89 436.61 87.18 441.01 86.94 445.02 C 86.77 446.95 87.94 447.84 88.96 449.26 C 87.92 449.18 86.88 449.10 85.83 449.03 C 85.38 444.05 85.43 438.90 85.84 433.93 Z" fill="#1b2833" />
<path d="M 260.90 434.24 C 262.24 434.07 261.99 436.72 262.39 437.61 C 263.86 437.99 265.97 437.99 266.92 439.30 C 267.49 441.07 267.47 442.90 266.83 444.64 C 265.63 446.70 263.07 445.64 261.11 445.81 C 260.54 441.98 260.47 438.09 260.90 434.24 Z" fill="#202d39" />
<path d="M 46.19 435.11 C 48.16 434.95 50.40 434.59 52.06 435.92 C 55.37 438.40 54.33 444.14 50.69 445.78 C 49.28 446.18 47.66 445.93 46.21 445.89 C 45.96 442.33 45.81 438.67 46.19 435.11 Z" fill="#3d4b57" />
<path d="M 93.27 435.12 C 96.00 434.41 98.07 436.18 98.16 438.93 C 96.83 438.06 95.52 437.16 94.19 436.29 C 93.53 436.63 92.88 436.96 92.22 437.28 C 91.83 439.95 90.93 443.34 94.04 444.66 C 95.34 443.95 96.66 443.30 98.05 442.78 C 97.56 444.99 95.52 446.49 93.28 445.83 C 88.90 444.33 88.82 436.60 93.27 435.12 Z" fill="#36434d" />
<path d="M 141.88 434.95 C 143.19 434.91 144.48 434.98 145.76 435.14 C 149.99 436.46 150.23 443.48 146.34 445.36 C 144.93 446.19 143.58 445.89 142.02 445.96 C 141.32 442.32 141.32 438.61 141.88 434.95 Z" fill="#35424d" />
<path d="M 194.08 435.28 L 195.03 435.07 C 195.32 438.64 195.27 442.19 194.95 445.75 L 194.00 445.75 C 193.84 442.28 193.66 438.73 194.08 435.28 Z" fill="#111b25" />
<path d="M 254.93 434.75 C 255.18 438.36 255.15 441.97 254.95 445.58 C 253.52 445.69 251.90 446.04 250.49 445.69 C 247.99 444.47 248.37 441.50 249.09 439.29 C 249.96 438.11 252.00 438.01 253.32 437.48 C 253.69 436.41 254.23 435.50 254.93 434.75 Z" fill="#1f2a34" />
<path d="M 64.88 435.84 C 65.85 437.11 66.92 437.71 66.27 439.47 C 65.53 441.85 66.16 443.82 66.77 446.13 C 65.96 445.96 65.16 445.80 64.36 445.63 C 64.26 442.88 62.12 437.73 64.88 435.84 Z" fill="#2d3842" />
<path d="M 134.07 435.73 C 134.88 436.67 135.64 437.41 135.40 438.76 C 134.98 441.45 135.22 443.57 135.85 446.20 C 134.10 445.78 133.69 445.58 133.35 443.74 C 133.11 440.74 131.48 438.07 134.07 435.73 Z" fill="#3c4955" />
<path d="M 143.20 436.20 C 144.45 436.39 145.64 436.76 146.81 437.24 C 147.64 439.64 147.37 441.32 146.66 443.68 C 145.47 444.06 144.27 444.24 143.07 444.21 C 143.00 441.57 142.88 438.82 143.20 436.20 Z" fill="#d6e8f4" />
<path d="M 159.94 435.77 C 160.65 436.77 161.72 437.33 161.29 438.71 C 160.45 441.47 160.96 443.49 161.75 446.17 C 160.97 445.98 160.18 445.79 159.40 445.60 C 159.30 442.85 157.17 437.65 159.94 435.77 Z" fill="#374550" />
<path d="M 237.12 435.97 C 238.16 436.56 238.82 437.45 239.51 438.39 C 237.42 441.24 238.41 443.33 239.73 446.19 C 238.97 445.97 238.20 445.76 237.44 445.55 C 236.95 442.60 235.80 438.79 237.12 435.97 Z" fill="#131d27" />
<path d="M 51.65 437.39 C 52.17 439.16 52.31 440.87 51.85 442.68 C 50.98 444.42 49.74 444.16 48.07 444.20 C 47.98 442.10 47.87 440.06 48.03 437.96 C 47.88 435.48 50.42 437.05 51.65 437.39 Z" fill="#e5f1f7" />
<path d="M 0.00 437.67 L 1.94 438.08 C 2.00 457.08 2.00 476.05 2.00 495.04 C 1.93 497.55 2.74 499.77 3.63 502.06 L 2.71 503.37 C 1.73 502.10 0.85 500.78 0.00 499.44 L 0.00 437.67 Z" fill="#7a7a70" />
<path d="M 60.76 438.03 C 62.20 440.52 61.99 443.03 61.92 445.80 C 59.71 445.59 56.28 446.91 55.48 443.95 C 55.13 441.65 58.61 441.11 60.09 439.97 C 58.63 439.27 57.25 439.63 55.71 439.71 C 56.52 437.19 58.71 437.97 60.76 438.03 Z" fill="#2b3842" />
<path d="M 71.94 437.77 C 74.39 438.01 74.36 439.97 74.96 441.85 C 73.32 442.00 71.68 442.13 70.03 442.26 C 69.57 445.54 73.27 443.00 74.41 445.15 C 72.94 446.03 71.17 446.49 69.65 445.45 C 66.49 443.53 67.62 437.09 71.94 437.77 Z" fill="#293540" />
<path d="M 76.36 438.12 C 77.89 437.06 78.94 439.46 77.12 439.84 C 76.15 439.58 75.89 439.00 76.36 438.12 Z" fill="#42515c" />
<path d="M 99.81 438.06 L 100.87 438.09 C 100.93 441.28 101.17 443.48 102.88 446.24 C 101.76 445.67 99.91 445.46 99.84 443.90 C 99.54 441.99 99.74 439.97 99.81 438.06 Z" fill="#121d29" />
<path d="M 104.34 438.35 L 105.99 437.98 C 105.77 440.24 106.78 444.25 104.98 445.87 C 103.18 444.49 104.32 440.42 104.34 438.35 Z" fill="#3a4853" />
<path d="M 108.06 438.20 C 109.04 438.08 110.02 437.98 111.01 437.89 C 110.37 439.20 109.33 440.63 109.24 442.10 C 108.86 443.15 109.44 445.93 107.92 445.93 C 107.77 443.43 107.44 440.65 108.06 438.20 Z" fill="#141d26" />
<path d="M 113.12 438.24 C 114.05 438.09 114.99 437.96 115.93 437.85 C 113.85 440.39 114.02 442.93 113.81 446.03 L 112.87 445.72 C 112.43 443.32 112.31 440.58 113.12 438.24 Z" fill="#182430" />
<path d="M 120.02 437.81 C 122.82 437.60 123.49 439.69 123.21 442.07 C 121.51 442.18 119.81 442.29 118.11 442.43 C 119.61 444.82 120.60 444.32 123.15 444.37 C 122.31 445.63 121.74 446.17 120.13 446.01 C 116.02 445.48 115.52 438.03 120.02 437.81 Z" fill="#232f3a" />
<path d="M 125.19 438.15 C 127.16 437.76 128.76 437.73 130.72 438.25 C 131.25 440.85 131.24 443.39 131.01 446.03 C 128.72 445.77 130.68 440.37 128.80 439.03 C 124.81 438.02 127.63 445.54 125.11 446.00 C 124.96 443.40 124.88 440.74 125.19 438.15 Z" fill="#1b2833" />
<path d="M 155.67 438.08 C 157.60 439.74 156.74 443.52 156.87 445.81 C 155.32 445.86 153.75 445.97 152.20 445.87 C 151.07 445.24 150.72 444.21 150.15 443.14 C 151.51 441.07 154.70 441.49 155.03 439.09 C 153.57 439.26 152.13 439.48 150.68 439.68 C 151.36 437.49 153.84 437.35 155.67 438.08 Z" fill="#303e49" />
<path d="M 166.06 437.83 C 168.67 437.61 169.66 439.65 170.02 441.88 C 168.31 442.21 165.93 441.99 164.55 443.13 C 166.14 445.03 167.74 444.24 169.87 444.30 C 168.75 445.44 167.92 446.25 166.18 446.01 C 161.92 445.52 161.64 438.12 166.06 437.83 Z" fill="#2a3640" />
<path d="M 197.23 438.14 C 199.09 437.80 200.94 437.87 202.82 437.94 C 204.28 440.23 203.92 443.09 203.80 445.68 L 202.08 445.95 C 202.00 443.66 201.94 441.38 201.83 439.10 C 200.99 439.16 200.14 439.23 199.29 439.30 C 199.09 441.46 198.95 443.62 198.81 445.78 L 197.11 445.79 C 197.03 443.23 196.95 440.69 197.23 438.14 Z" fill="#44545f" />
<path d="M 211.22 439.86 C 209.77 439.62 208.33 439.34 206.88 439.12 C 207.40 441.87 211.48 441.15 211.20 443.92 C 210.57 447.32 205.36 446.35 204.83 443.26 C 206.55 443.63 208.29 445.11 209.95 443.95 C 208.31 442.29 206.07 442.03 204.86 440.06 C 206.13 437.22 209.93 436.83 211.22 439.86 Z" fill="#303d47" />
<path d="M 213.07 438.01 C 214.60 437.97 216.24 437.73 217.74 438.04 C 220.01 439.34 219.79 442.58 218.84 444.65 C 217.85 445.70 216.06 445.95 214.74 446.50 C 214.22 447.39 213.67 448.26 213.07 449.08 C 212.73 445.37 212.86 441.73 213.07 438.01 Z" fill="#1c2833" />
<path d="M 224.87 437.81 C 227.17 438.29 227.24 439.92 227.10 441.90 C 225.44 442.06 223.78 442.22 222.12 442.40 C 222.75 445.20 225.06 444.13 227.17 444.42 C 225.98 445.88 225.24 446.32 223.31 445.87 C 219.30 444.80 220.27 436.91 224.87 437.81 Z" fill="#27333e" />
<path d="M 232.02 437.82 C 234.08 437.80 234.56 439.09 235.18 440.76 C 233.81 440.18 232.47 439.56 231.12 438.94 C 229.55 440.81 229.52 443.05 231.22 444.86 C 232.53 444.31 233.85 443.77 235.18 443.29 C 234.48 444.79 233.93 446.03 232.03 446.04 C 227.25 446.45 227.24 437.29 232.02 437.82 Z" fill="#273440" />
<path d="M 244.02 437.81 C 246.44 437.60 247.87 439.69 247.10 441.92 C 245.45 442.09 243.81 442.28 242.18 442.52 C 242.93 445.26 245.02 444.12 247.15 444.37 C 246.09 446.13 244.39 446.53 242.64 445.48 C 239.57 444.00 240.23 437.84 244.02 437.81 Z" fill="#232e38" />
<path d="M 268.16 437.85 C 270.56 437.92 270.46 440.97 271.42 442.67 C 272.65 440.95 272.63 438.28 274.82 437.81 C 273.98 441.09 272.94 444.40 271.41 447.43 C 270.77 448.75 269.63 448.71 268.40 449.14 C 269.12 447.87 270.45 446.57 270.69 445.13 C 269.93 442.67 268.80 440.35 268.16 437.85 Z" fill="#313e49" />
<path d="M 276.20 438.06 C 277.97 436.88 279.17 439.68 277.07 440.08 C 275.95 439.74 275.66 439.07 276.20 438.06 Z" fill="#475762" />
<path d="M 70.18 439.27 C 71.33 438.22 73.73 439.20 72.73 440.85 C 71.53 441.87 69.04 441.02 70.18 439.27 Z" fill="#c1ccd2" />
<path d="M 119.25 439.17 C 120.32 438.58 122.41 439.35 121.61 440.77 C 120.32 441.85 116.75 440.92 119.25 439.17 Z" fill="#d3dfe5" />
<path d="M 165.29 439.39 C 166.34 438.40 168.58 439.32 167.67 440.82 C 166.60 441.67 164.23 440.99 165.29 439.39 Z" fill="#d0e0e7" />
<path d="M 215.19 439.10 C 218.80 438.02 219.08 444.42 215.98 444.88 C 213.73 444.37 213.88 440.44 215.19 439.10 Z" fill="#eaf7fb" />
<path d="M 223.24 439.15 C 224.33 438.56 226.35 439.34 225.56 440.76 C 224.26 441.91 220.79 440.87 223.24 439.15 Z" fill="#ccd9e1" />
<path d="M 243.25 439.16 C 244.32 438.55 246.43 439.32 245.61 440.75 C 244.31 441.82 240.78 440.94 243.25 439.16 Z" fill="#d3dee4" />
<path d="M 251.28 439.19 C 253.38 438.37 253.94 441.29 253.69 442.79 C 253.91 444.88 250.00 444.96 250.12 442.87 C 249.92 441.31 250.09 440.28 251.28 439.19 Z" fill="#e4f5fd" />
<path d="M 263.99 438.90 C 266.86 439.78 266.44 443.86 264.04 445.12 C 261.45 444.05 261.07 439.65 263.99 438.90 Z" fill="#ecf7fb" />
<path d="M 58.25 442.06 C 59.21 441.82 59.80 442.12 60.03 442.96 C 60.11 444.56 57.94 445.43 57.17 443.85 C 57.04 443.08 57.40 442.48 58.25 442.06 Z" fill="#cfdce3" />
<path d="M 153.28 442.11 C 155.41 441.54 155.54 444.09 153.82 444.71 C 151.83 445.04 151.57 442.81 153.28 442.11 Z" fill="#d9e5eb" />
<path d="M 76.20 444.13 C 77.99 442.94 79.17 445.73 77.06 446.13 C 75.93 445.80 75.64 445.14 76.20 444.13 Z" fill="#54616c" />
<path d="M 276.15 444.06 C 277.96 442.86 279.08 445.61 276.99 446.06 C 275.86 445.75 275.59 445.09 276.15 444.06 Z" fill="#475560" />
<path d="M 299.44 443.80 C 301.87 445.41 304.25 444.73 306.99 444.85 C 327.60 445.30 348.25 444.62 368.85 445.10 L 368.86 446.06 C 344.89 445.76 320.89 446.25 296.92 445.85 C 297.76 445.16 298.61 444.50 299.44 443.80 Z" fill="#e9fafe" />
<path d="M 0.00 499.44 C 0.85 500.78 1.73 502.10 2.71 503.37 C 4.41 505.59 6.68 506.79 9.14 508.00 L 0.00 508.00 L 0.00 499.44 Z" fill="#ffffff" />
</svg>